<svg width="290" height="296" viewBox="0 0 290 296" fill="none" xmlns="http://www.w3.org/2000/svg">
<g filter="url(#filter0_d_390_6)">
<path d="M145 6L270.574 223.5H19.4263L145 6Z" fill="#D9D9D9"/>
</g>
<path d="M145 6L270.574 223.5H19.4263L145 6Z" fill="#D9D9D9"/>
<path d="M109.357 121.422C111.119 121.422 112.709 120.734 114.127 119.359V123.065C112.193 124.269 109.809 124.87 106.973 124.87C102.289 124.87 99.3779 123.227 98.2393 119.939C97.8525 118.801 97.6592 117.426 97.6592 115.814V97.542C97.6592 96.4248 97.2402 95.6406 96.4023 95.1895C96.0371 94.9961 95.6289 94.8457 95.1777 94.7383C94.7266 94.6094 94.2969 94.416 93.8887 94.1582V92.1924H104.556V116.395C104.556 119.746 106.156 121.422 109.357 121.422ZM116.802 97.542C116.802 96.4033 116.372 95.6191 115.513 95.1895C115.126 94.9961 114.696 94.8457 114.224 94.7383C113.751 94.6094 113.278 94.416 112.806 94.1582V92.1924H123.666V118.715C123.666 119.832 124.106 120.605 124.987 121.035C125.374 121.229 125.793 121.39 126.244 121.519C126.695 121.647 127.125 121.841 127.533 122.099V124H117.253L116.802 120.584V97.542ZM152.702 104.793C152.702 98.6055 151.155 95.125 148.062 94.3516V91.5801C152.079 91.9453 155.173 93.6318 157.343 96.6396C159.384 99.4541 160.404 103.117 160.404 107.629H142.164V104.793H152.702ZM148.19 122.034C151.929 121.862 154.582 120.101 156.15 116.749C156.602 115.782 156.988 114.794 157.311 113.784L160.082 114.815C158.879 119.306 156.419 122.324 152.702 123.871C151.392 124.408 149.888 124.73 148.19 124.838V122.034ZM139.457 106.179C139.457 115.417 141.477 120.616 145.516 121.776V124.741C141.305 124.269 137.964 122.518 135.493 119.488C133.022 116.502 131.787 112.753 131.787 108.241C131.787 103.493 133.022 99.5938 135.493 96.543C137.985 93.4707 141.283 91.8057 145.387 91.5479V94.2227C141.434 94.6953 139.457 98.6807 139.457 106.179ZM175.97 117.522C175.97 119.499 176.399 120.691 177.259 121.1C177.517 121.207 177.796 121.314 178.097 121.422C178.978 121.701 179.611 121.991 179.998 122.292V124H165.013V122.292C165.485 121.905 165.969 121.658 166.463 121.551C166.957 121.443 167.397 121.293 167.784 121.1C168.665 120.627 169.105 119.435 169.105 117.522V84.7803C169.105 82.6318 168.687 81.3857 167.849 81.042C167.591 80.9346 167.312 80.8379 167.011 80.752C166.065 80.5371 165.399 80.2793 165.013 79.9785V78.0127H175.97V117.522ZM178.645 104.729L184.381 99.3789C185.863 98.0039 186.604 96.9941 186.604 96.3496C186.604 95.7051 185.745 95.2109 184.026 94.8672C183.554 94.7598 183.113 94.6094 182.705 94.416V92.3857H197.014V94.2871C196.52 94.5234 195.982 94.7705 195.402 95.0283C194.822 95.2646 194.167 95.5977 193.437 96.0273C191.718 97.0156 189.892 98.4443 187.958 100.313L184.284 103.858L193.952 119.521C194.511 120.466 195.112 121.046 195.757 121.261C196.423 121.476 196.949 121.637 197.336 121.744C197.723 121.83 198.12 121.991 198.528 122.228V124H184.381V122.292C185.434 121.798 185.981 121.046 186.024 120.036C186.024 119.757 185.96 119.499 185.831 119.263L178.645 106.662V104.729ZM96.5635 198.564C90.8057 200.648 87.9268 203.688 87.9268 207.685C87.9268 209.296 88.3135 210.596 89.0869 211.584C89.8604 212.551 91.0098 213.034 92.5352 213.034C94.082 213.034 95.4248 212.465 96.5635 211.326V214.388C94.9092 215.376 93.04 215.87 90.9561 215.87C88.8721 215.87 87.1963 215.666 85.9287 215.258C84.6826 214.85 83.6299 214.291 82.7705 213.582C80.9873 212.143 80.0957 210.241 80.0957 207.878C80.0957 203.001 84.4248 199.316 93.083 196.824C94.3076 196.459 95.4678 196.137 96.5635 195.857V198.564ZM88.9258 187.027C90.1074 187.479 90.6982 188.51 90.6982 190.121C90.6982 191.152 90.333 191.979 89.6025 192.603C88.8721 193.226 87.8838 193.537 86.6377 193.537C85.4131 193.537 84.4355 193.204 83.7051 192.538C82.9961 191.872 82.6416 191.013 82.6416 189.96C82.6416 188.907 82.8887 187.962 83.3828 187.124C83.877 186.286 84.5752 185.545 85.4775 184.9C87.3467 183.547 89.6992 182.763 92.5352 182.548V184.997C90.7949 185.169 89.5918 185.846 88.9258 187.027ZM108.101 211.81C109.282 211.81 110.034 210.735 110.356 208.587L112 209.457C111.785 211.541 111.205 213.131 110.26 214.227C109.336 215.322 107.854 215.87 105.812 215.87C104.223 215.87 103.041 215.58 102.268 215C101.021 214.055 100.012 212.626 99.2383 210.714V190.637C99.2383 189.305 98.8838 188.155 98.1748 187.188C97.4873 186.2 96.499 185.534 95.21 185.19V182.548C102.493 182.935 106.135 186.78 106.135 194.085V209.328C106.135 210.982 106.79 211.81 108.101 211.81ZM124.021 187.027V222.509C124.063 223.54 124.536 224.281 125.438 224.732C125.868 224.926 126.341 225.098 126.856 225.248C127.372 225.42 127.909 225.635 128.468 225.893V227.601H113.096V225.893C113.547 225.635 114.009 225.42 114.481 225.248C114.976 225.098 115.416 224.926 115.803 224.732C116.684 224.26 117.124 223.519 117.124 222.509V188.349C117.124 187.21 116.694 186.426 115.835 185.996C115.47 185.803 115.04 185.652 114.546 185.545C114.073 185.416 113.59 185.223 113.096 184.965V182.999H123.795L124.021 187.027ZM131.594 215.87C129.746 215.87 128.113 215.548 126.695 214.903L126.728 212.035C127.78 212.744 128.887 213.099 130.047 213.099C131.229 213.099 132.249 212.83 133.108 212.293C133.989 211.734 134.73 210.896 135.332 209.779C136.578 207.438 137.201 203.989 137.201 199.435C137.201 192.302 135.869 187.951 133.205 186.383C132.41 185.932 131.647 185.706 130.917 185.706C130.208 185.706 129.639 185.813 129.209 186.028C128.801 186.222 128.436 186.469 128.113 186.77C127.727 187.135 127.254 187.769 126.695 188.671V184.127C128.285 183.053 130.047 182.516 131.98 182.516C133.936 182.516 135.697 182.956 137.266 183.837C138.834 184.696 140.188 185.889 141.326 187.414C143.732 190.594 144.936 194.536 144.936 199.241C144.936 204.354 143.679 208.426 141.165 211.455C138.694 214.398 135.504 215.87 131.594 215.87ZM159.405 187.027V222.509C159.448 223.54 159.921 224.281 160.823 224.732C161.253 224.926 161.726 225.098 162.241 225.248C162.757 225.42 163.294 225.635 163.853 225.893V227.601H148.48V225.893C148.932 225.635 149.394 225.42 149.866 225.248C150.36 225.098 150.801 224.926 151.188 224.732C152.068 224.26 152.509 223.519 152.509 222.509V188.349C152.509 187.21 152.079 186.426 151.22 185.996C150.854 185.803 150.425 185.652 149.931 185.545C149.458 185.416 148.975 185.223 148.48 184.965V182.999H159.18L159.405 187.027ZM166.979 215.87C165.131 215.87 163.498 215.548 162.08 214.903L162.112 212.035C163.165 212.744 164.271 213.099 165.432 213.099C166.613 213.099 167.634 212.83 168.493 212.293C169.374 211.734 170.115 210.896 170.717 209.779C171.963 207.438 172.586 203.989 172.586 199.435C172.586 192.302 171.254 187.951 168.59 186.383C167.795 185.932 167.032 185.706 166.302 185.706C165.593 185.706 165.023 185.813 164.594 186.028C164.186 186.222 163.82 186.469 163.498 186.77C163.111 187.135 162.639 187.769 162.08 188.671V184.127C163.67 183.053 165.432 182.516 167.365 182.516C169.32 182.516 171.082 182.956 172.65 183.837C174.219 184.696 175.572 185.889 176.711 187.414C179.117 190.594 180.32 194.536 180.32 199.241C180.32 204.354 179.063 208.426 176.55 211.455C174.079 214.398 170.889 215.87 166.979 215.87ZM198.109 213.292C199.721 213.056 201.01 212.465 201.977 211.52C202.965 210.553 203.459 209.436 203.459 208.168C203.459 206.9 203.201 205.923 202.686 205.235C202.191 204.526 201.525 203.925 200.688 203.431C199.871 202.915 198.937 202.464 197.884 202.077C196.831 201.669 195.757 201.271 194.661 200.885C193.565 200.477 192.491 200.025 191.438 199.531C190.386 199.037 189.44 198.446 188.603 197.759C186.776 196.233 185.863 194.235 185.863 191.765C185.863 189.552 186.701 187.586 188.377 185.867C190.268 183.891 192.738 182.784 195.789 182.548V185.094C194.543 185.33 193.544 185.846 192.792 186.641C192.062 187.436 191.696 188.37 191.696 189.444C191.696 190.519 191.954 191.378 192.47 192.022C192.985 192.646 193.662 193.193 194.5 193.666C195.359 194.117 196.326 194.536 197.4 194.923C198.496 195.288 199.613 195.686 200.752 196.115C201.891 196.523 202.997 196.985 204.071 197.501C205.167 197.995 206.134 198.618 206.972 199.37C208.862 201.046 209.808 203.216 209.808 205.88C209.808 208.222 208.927 210.316 207.165 212.164C205.06 214.377 202.041 215.602 198.109 215.838V213.292ZM200.301 190.121C200.301 188.51 200.892 187.479 202.073 187.027C201.407 185.846 200.204 185.169 198.464 184.997V182.548C201.3 182.763 203.663 183.547 205.554 184.9C207.423 186.254 208.357 187.887 208.357 189.799C208.357 190.959 207.992 191.872 207.262 192.538C206.553 193.204 205.575 193.537 204.329 193.537C203.104 193.537 202.127 193.226 201.396 192.603C200.666 191.979 200.301 191.152 200.301 190.121ZM193.598 208.265C193.598 209.876 193.007 210.907 191.825 211.358C192.491 212.54 193.694 213.217 195.435 213.389V215.838C192.663 215.666 190.3 214.882 188.345 213.485C186.476 212.132 185.541 210.499 185.541 208.587C185.541 207.427 185.896 206.514 186.604 205.848C187.335 205.182 188.312 204.849 189.537 204.849C190.783 204.849 191.771 205.16 192.502 205.783C193.232 206.406 193.598 207.233 193.598 208.265Z" fill="#800000"/>
<path d="M114.127 119.359H114.627V118.178L113.779 119L114.127 119.359ZM114.127 123.065L114.391 123.49L114.627 123.343V123.065H114.127ZM98.2393 119.939L97.7658 120.1L97.7668 120.103L98.2393 119.939ZM96.4023 95.1895L96.6394 94.7492L96.6363 94.7476L96.4023 95.1895ZM95.1777 94.7383L95.0404 95.219L95.0511 95.2221L95.0619 95.2247L95.1777 94.7383ZM93.8887 94.1582H93.3887V94.4338L93.6217 94.5809L93.8887 94.1582ZM93.8887 92.1924V91.6924H93.3887V92.1924H93.8887ZM104.556 92.1924H105.056V91.6924H104.556V92.1924ZM114.224 94.7383L114.092 95.2207L114.102 95.2235L114.113 95.2258L114.224 94.7383ZM112.806 94.1582H112.306V94.455L112.566 94.5972L112.806 94.1582ZM112.806 92.1924V91.6924H112.306V92.1924H112.806ZM123.666 92.1924H124.166V91.6924H123.666V92.1924ZM124.987 121.035L125.211 120.588L125.207 120.586L124.987 121.035ZM127.533 122.099H128.033V121.823L127.8 121.676L127.533 122.099ZM127.533 124V124.5H128.033V124H127.533ZM117.253 124L116.757 124.065L116.815 124.5H117.253V124ZM116.802 120.584H116.302V120.617L116.306 120.649L116.802 120.584ZM109.357 121.922C111.265 121.922 112.976 121.172 114.475 119.718L113.779 119C112.442 120.297 110.973 120.922 109.357 120.922V121.922ZM113.627 119.359V123.065H114.627V119.359H113.627ZM113.863 122.641C112.026 123.784 109.738 124.37 106.973 124.37V125.37C109.879 125.37 112.361 124.753 114.391 123.49L113.863 122.641ZM106.973 124.37C104.684 124.37 102.879 123.968 101.522 123.202C100.178 122.443 99.2429 121.309 98.7117 119.776L97.7668 120.103C98.3743 121.857 99.4645 123.189 101.031 124.073C102.585 124.951 104.577 125.37 106.973 125.37V124.37ZM98.7127 119.779C98.3484 118.706 98.1592 117.388 98.1592 115.814H97.1592C97.1592 117.463 97.3567 118.896 97.7658 120.1L98.7127 119.779ZM98.1592 115.814V97.542H97.1592V115.814H98.1592ZM98.1592 97.542C98.1592 96.2794 97.6706 95.3045 96.6394 94.7492L96.1653 95.6297C96.8099 95.9768 97.1592 96.5702 97.1592 97.542H98.1592ZM96.6363 94.7476C96.2295 94.5322 95.7809 94.3679 95.2935 94.2519L95.0619 95.2247C95.4769 95.3235 95.8447 95.46 96.1684 95.6313L96.6363 94.7476ZM95.3151 94.2575C94.911 94.1421 94.5248 93.9686 94.1557 93.7355L93.6217 94.5809C94.0689 94.8634 94.5421 95.0767 95.0404 95.219L95.3151 94.2575ZM94.3887 94.1582V92.1924H93.3887V94.1582H94.3887ZM93.8887 92.6924H104.556V91.6924H93.8887V92.6924ZM104.056 92.1924V116.395H105.056V92.1924H104.056ZM104.056 116.395C104.056 118.142 104.473 119.545 105.395 120.51C106.321 121.48 107.674 121.922 109.357 121.922V120.922C107.84 120.922 106.792 120.526 106.118 119.82C105.439 119.109 105.056 117.999 105.056 116.395H104.056ZM117.302 97.542C117.302 96.9111 117.183 96.3428 116.918 95.8596C116.651 95.3715 116.25 94.999 115.736 94.7422L115.289 95.6367C115.635 95.8096 115.879 96.044 116.041 96.3401C116.206 96.6411 116.302 97.0342 116.302 97.542H117.302ZM115.736 94.7422C115.31 94.5289 114.842 94.366 114.334 94.2507L114.113 95.2258C114.551 95.3254 114.942 95.4632 115.289 95.6367L115.736 94.7422ZM114.355 94.2559C113.924 94.1382 113.487 93.9603 113.045 93.7193L112.566 94.5972C113.07 94.8718 113.578 95.0806 114.092 95.2207L114.355 94.2559ZM113.306 94.1582V92.1924H112.306V94.1582H113.306ZM112.806 92.6924H123.666V91.6924H112.806V92.6924ZM123.166 92.1924V118.715H124.166V92.1924H123.166ZM123.166 118.715C123.166 119.338 123.289 119.901 123.562 120.38C123.837 120.863 124.247 121.23 124.768 121.485L125.207 120.586C124.847 120.41 124.596 120.176 124.431 119.885C124.263 119.591 124.166 119.208 124.166 118.715H123.166ZM124.764 121.482C125.18 121.691 125.628 121.863 126.107 121.999L126.382 121.038C125.958 120.917 125.568 120.766 125.211 120.588L124.764 121.482ZM126.107 121.999C126.511 122.115 126.897 122.288 127.266 122.521L127.8 121.676C127.353 121.393 126.88 121.18 126.382 121.038L126.107 121.999ZM127.033 122.099V124H128.033V122.099H127.033ZM127.533 123.5H117.253V124.5H127.533V123.5ZM117.749 123.935L117.297 120.519L116.306 120.649L116.757 124.065L117.749 123.935ZM117.302 120.584V97.542H116.302V120.584H117.302ZM152.702 104.793V105.293H153.202V104.793H152.702ZM148.062 94.3516H147.562V94.742L147.94 94.8366L148.062 94.3516ZM148.062 91.5801L148.107 91.0821L147.562 91.0326V91.5801H148.062ZM157.343 96.6396L156.937 96.9322L156.938 96.9332L157.343 96.6396ZM160.404 107.629V108.129H160.904V107.629H160.404ZM142.164 107.629H141.664V108.129H142.164V107.629ZM142.164 104.793V104.293H141.664V104.793H142.164ZM148.19 122.034L148.167 121.535L147.69 121.557V122.034H148.19ZM156.15 116.749L156.603 116.961L156.603 116.96L156.15 116.749ZM157.311 113.784L157.485 113.316L156.994 113.133L156.834 113.632L157.311 113.784ZM160.082 114.815L160.565 114.945L160.683 114.505L160.256 114.347L160.082 114.815ZM152.702 123.871L152.892 124.334L152.894 124.333L152.702 123.871ZM148.19 124.838H147.69V125.371L148.222 125.337L148.19 124.838ZM145.516 121.776H146.016V121.4L145.654 121.296L145.516 121.776ZM145.516 124.741L145.46 125.238L146.016 125.3V124.741H145.516ZM135.493 119.488L135.881 119.172L135.878 119.17L135.493 119.488ZM135.493 96.543L135.105 96.228L135.105 96.2283L135.493 96.543ZM145.387 91.5479H145.887V91.0155L145.355 91.0488L145.387 91.5479ZM145.387 94.2227L145.446 94.7191L145.887 94.6664V94.2227H145.387ZM153.202 104.793C153.202 101.668 152.813 99.1708 151.999 97.3389C151.177 95.4886 149.909 94.298 148.183 93.8665L147.94 94.8366C149.308 95.1786 150.361 96.1149 151.085 97.7451C151.818 99.3937 152.202 101.731 152.202 104.793H153.202ZM148.562 94.3516V91.5801H147.562V94.3516H148.562ZM148.016 92.078C151.904 92.4315 154.86 94.0529 156.937 96.9322L157.748 96.3471C155.486 93.2108 152.254 91.4592 148.107 91.0821L148.016 92.078ZM156.938 96.9332C158.901 99.64 159.904 103.191 159.904 107.629H160.904C160.904 103.043 159.867 99.2682 157.748 96.3461L156.938 96.9332ZM160.404 107.129H142.164V108.129H160.404V107.129ZM142.664 107.629V104.793H141.664V107.629H142.664ZM142.164 105.293H152.702V104.293H142.164V105.293ZM148.213 122.534C150.157 122.444 151.846 121.94 153.261 121.001C154.675 120.061 155.787 118.706 156.603 116.961L155.698 116.537C154.946 118.143 153.946 119.345 152.708 120.167C151.469 120.99 149.962 121.452 148.167 121.535L148.213 122.534ZM156.603 116.96C157.064 115.975 157.458 114.966 157.787 113.936L156.834 113.632C156.518 114.622 156.14 115.59 155.697 116.538L156.603 116.96ZM157.136 114.253L159.908 115.284L160.256 114.347L157.485 113.316L157.136 114.253ZM159.599 114.686C158.429 119.053 156.06 121.932 152.51 123.409L152.894 124.333C156.778 122.717 159.329 119.559 160.565 114.945L159.599 114.686ZM152.513 123.408C151.261 123.921 149.812 124.234 148.159 124.339L148.222 125.337C149.963 125.227 151.522 124.895 152.892 124.334L152.513 123.408ZM148.69 124.838V122.034H147.69V124.838H148.69ZM138.957 106.179C138.957 110.825 139.463 114.505 140.506 117.188C141.552 119.881 143.162 121.62 145.378 122.257L145.654 121.296C143.831 120.772 142.411 119.331 141.438 116.826C140.46 114.31 139.957 110.771 139.957 106.179H138.957ZM145.016 121.776V124.741H146.016V121.776H145.016ZM145.571 124.244C141.478 123.785 138.261 122.091 135.881 119.172L135.106 119.804C137.666 122.944 141.131 124.752 145.46 125.238L145.571 124.244ZM135.878 119.17C133.494 116.287 132.287 112.657 132.287 108.241H131.287C131.287 112.849 132.551 116.717 135.108 119.807L135.878 119.17ZM132.287 108.241C132.287 103.583 133.497 99.8018 135.882 96.8576L135.105 96.2283C132.548 99.3857 131.287 103.403 131.287 108.241H132.287ZM135.881 96.858C138.282 93.899 141.448 92.2963 145.418 92.0469L145.355 91.0488C141.119 91.315 137.689 93.0424 135.105 96.228L135.881 96.858ZM144.887 91.5479V94.2227H145.887V91.5479H144.887ZM145.327 93.7262C143.161 93.9852 141.544 95.2211 140.492 97.344C139.453 99.4377 138.957 102.399 138.957 106.179H139.957C139.957 102.461 140.449 99.68 141.387 97.7883C142.311 95.9259 143.659 94.9328 145.446 94.7191L145.327 93.7262ZM177.259 121.1L177.044 121.551L177.055 121.556L177.066 121.561L177.259 121.1ZM178.097 121.422L177.929 121.893L177.937 121.896L177.946 121.898L178.097 121.422ZM179.998 122.292H180.498V122.047L180.305 121.897L179.998 122.292ZM179.998 124V124.5H180.498V124H179.998ZM165.013 124H164.513V124.5H165.013V124ZM165.013 122.292L164.696 121.905L164.513 122.055V122.292H165.013ZM167.784 121.1L168.008 121.547L168.014 121.544L168.021 121.54L167.784 121.1ZM167.849 81.042L167.656 81.5035L167.659 81.5046L167.849 81.042ZM167.011 80.752L167.148 80.2712L167.135 80.2674L167.122 80.2644L167.011 80.752ZM165.013 79.9785H164.513V80.2231L164.706 80.3732L165.013 79.9785ZM165.013 78.0127V77.5127H164.513V78.0127H165.013ZM175.97 78.0127H176.47V77.5127H175.97V78.0127ZM178.645 104.729L178.304 104.363L178.145 104.511V104.729H178.645ZM184.381 99.3789L184.041 99.0123L184.04 99.0132L184.381 99.3789ZM184.026 94.8672L183.916 95.3549L183.928 95.3575L184.026 94.8672ZM182.705 94.416H182.205V94.7324L182.491 94.8679L182.705 94.416ZM182.705 92.3857V91.8857H182.205V92.3857H182.705ZM197.014 92.3857H197.514V91.8857H197.014V92.3857ZM197.014 94.2871L197.229 94.7382L197.514 94.6022V94.2871H197.014ZM195.402 95.0283L195.591 95.4914L195.598 95.4884L195.605 95.4852L195.402 95.0283ZM193.437 96.0273L193.686 96.4608L193.69 96.4583L193.437 96.0273ZM187.958 100.313L188.305 100.673L188.306 100.673L187.958 100.313ZM184.284 103.858L183.937 103.499L183.647 103.778L183.859 104.121L184.284 103.858ZM193.952 119.521L194.383 119.266L194.378 119.258L193.952 119.521ZM195.757 121.261L195.599 121.735L195.603 121.737L195.757 121.261ZM197.336 121.744L197.202 122.226L197.215 122.229L197.227 122.232L197.336 121.744ZM198.528 122.228H199.028V121.939L198.779 121.795L198.528 122.228ZM198.528 124V124.5H199.028V124H198.528ZM184.381 124H183.881V124.5H184.381V124ZM184.381 122.292L184.168 121.839L183.881 121.974V122.292H184.381ZM186.024 120.036L186.524 120.057L186.524 120.047V120.036H186.024ZM185.831 119.263L186.27 119.023L186.265 119.015L185.831 119.263ZM178.645 106.662H178.145V106.795L178.21 106.91L178.645 106.662ZM175.47 117.522C175.47 118.54 175.579 119.396 175.822 120.069C176.066 120.746 176.46 121.274 177.044 121.551L177.473 120.648C177.198 120.517 176.948 120.244 176.762 119.73C176.575 119.209 176.47 118.482 176.47 117.522H175.47ZM177.066 121.561C177.333 121.672 177.621 121.783 177.929 121.893L178.265 120.951C177.971 120.846 177.7 120.742 177.451 120.638L177.066 121.561ZM177.946 121.898C178.811 122.173 179.376 122.442 179.691 122.687L180.305 121.897C179.847 121.541 179.144 121.229 178.248 120.945L177.946 121.898ZM179.498 122.292V124H180.498V122.292H179.498ZM179.998 123.5H165.013V124.5H179.998V123.5ZM165.513 124V122.292H164.513V124H165.513ZM165.329 122.679C165.753 122.332 166.167 122.127 166.569 122.039L166.357 121.062C165.771 121.19 165.217 121.479 164.696 121.905L165.329 122.679ZM166.569 122.039C167.097 121.925 167.578 121.762 168.008 121.547L167.561 120.652C167.217 120.824 166.817 120.962 166.357 121.062L166.569 122.039ZM168.021 121.54C169.17 120.923 169.605 119.453 169.605 117.522H168.605C168.605 119.416 168.16 120.331 167.548 120.659L168.021 121.54ZM169.605 117.522V84.7803H168.605V117.522H169.605ZM169.605 84.7803C169.605 83.6817 169.499 82.7716 169.265 82.075C169.031 81.3781 168.643 80.8275 168.038 80.5794L167.659 81.5046C167.892 81.6002 168.133 81.8446 168.317 82.3937C168.502 82.9432 168.605 83.7304 168.605 84.7803H169.605ZM168.041 80.5805C167.763 80.4647 167.465 80.3618 167.148 80.2712L166.873 81.2327C167.158 81.3139 167.418 81.4044 167.656 81.5035L168.041 80.5805ZM167.122 80.2644C166.191 80.0529 165.616 79.8141 165.32 79.5838L164.706 80.3732C165.183 80.7445 165.94 81.0213 166.9 81.2395L167.122 80.2644ZM165.513 79.9785V78.0127H164.513V79.9785H165.513ZM165.013 78.5127H175.97V77.5127H165.013V78.5127ZM175.47 78.0127V117.522H176.47V78.0127H175.47ZM178.986 105.094L184.722 99.7446L184.04 99.0132L178.304 104.363L178.986 105.094ZM184.721 99.7455C185.473 99.0478 186.054 98.4272 186.452 97.8862C186.835 97.364 187.104 96.8399 187.104 96.3496H186.104C186.104 96.5039 186.003 96.8069 185.646 97.2945C185.301 97.7632 184.771 98.335 184.041 99.0123L184.721 99.7455ZM187.104 96.3496C187.104 95.7645 186.704 95.3468 186.209 95.0622C185.71 94.7749 185.003 94.5526 184.124 94.3769L183.928 95.3575C184.769 95.5256 185.351 95.7222 185.711 95.9291C186.075 96.1386 186.104 96.2901 186.104 96.3496H187.104ZM184.137 94.3796C183.698 94.2797 183.292 94.1408 182.919 93.9641L182.491 94.8679C182.935 95.078 183.41 95.2398 183.916 95.3548L184.137 94.3796ZM183.205 94.416V92.3857H182.205V94.416H183.205ZM182.705 92.8857H197.014V91.8857H182.705V92.8857ZM196.514 92.3857V94.2871H197.514V92.3857H196.514ZM196.798 93.836C196.309 94.0701 195.776 94.3152 195.199 94.5714L195.605 95.4852C196.189 95.2258 196.73 94.9768 197.229 94.7382L196.798 93.836ZM195.214 94.5653C194.605 94.8133 193.928 95.1584 193.183 95.5964L193.69 96.4583C194.406 96.0369 195.04 95.716 195.591 95.4914L195.214 94.5653ZM193.187 95.5939C191.423 96.6085 189.564 98.0657 187.61 99.954L188.306 100.673C190.219 98.823 192.013 97.4228 193.686 96.4608L193.187 95.5939ZM187.611 99.9537L183.937 103.499L184.631 104.218L188.305 100.673L187.611 99.9537ZM183.859 104.121L193.527 119.783L194.378 119.258L184.71 103.596L183.859 104.121ZM193.522 119.775C194.106 120.764 194.788 121.465 195.599 121.735L195.915 120.786C195.437 120.627 194.915 120.168 194.383 119.266L193.522 119.775ZM195.603 121.737C196.272 121.952 196.806 122.116 197.202 122.226L197.47 121.262C197.093 121.158 196.574 120.999 195.91 120.785L195.603 121.737ZM197.227 122.232C197.556 122.305 197.906 122.445 198.278 122.66L198.779 121.795C198.335 121.538 197.889 121.355 197.444 121.256L197.227 122.232ZM198.028 122.228V124H199.028V122.228H198.028ZM198.528 123.5H184.381V124.5H198.528V123.5ZM184.881 124V122.292H183.881V124H184.881ZM184.593 122.745C185.177 122.471 185.651 122.111 185.985 121.652C186.322 121.189 186.499 120.652 186.524 120.057L185.525 120.015C185.507 120.43 185.388 120.774 185.177 121.063C184.964 121.356 184.637 121.619 184.168 121.839L184.593 122.745ZM186.524 120.036C186.524 119.676 186.441 119.336 186.27 119.023L185.392 119.502C185.479 119.662 185.524 119.837 185.524 120.036H186.524ZM186.265 119.015L179.079 106.414L178.21 106.91L185.397 119.51L186.265 119.015ZM179.145 106.662V104.729H178.145V106.662H179.145ZM96.5635 198.564L96.7336 199.035L97.0635 198.915V198.564H96.5635ZM89.0869 211.584L88.6931 211.892L88.6965 211.896L89.0869 211.584ZM96.5635 211.326H97.0635V210.119L96.2099 210.973L96.5635 211.326ZM96.5635 214.388L96.8199 214.817L97.0635 214.671V214.388H96.5635ZM85.9287 215.258L85.7731 215.733L85.7754 215.734L85.9287 215.258ZM82.7705 213.582L83.0887 213.196L83.0846 213.193L82.7705 213.582ZM93.083 196.824L93.2213 197.305L93.2259 197.303L93.083 196.824ZM96.5635 195.857H97.0635V195.214L96.44 195.373L96.5635 195.857ZM88.9258 187.027L88.4902 186.782L88.2052 187.287L88.7474 187.494L88.9258 187.027ZM83.7051 192.538L83.3627 192.903L83.3682 192.908L83.7051 192.538ZM85.4775 184.9L85.7682 185.307L85.7708 185.305L85.4775 184.9ZM92.5352 182.548H93.0352V182.009L92.4974 182.049L92.5352 182.548ZM92.5352 184.997L92.5843 185.495L93.0352 185.45V184.997H92.5352ZM110.356 208.587L110.59 208.145L109.967 207.815L109.862 208.513L110.356 208.587ZM112 209.457L112.497 209.508L112.532 209.173L112.234 209.015L112 209.457ZM110.26 214.227L109.881 213.9L109.878 213.904L110.26 214.227ZM102.268 215L101.965 215.398L101.968 215.4L102.268 215ZM99.2383 210.714H98.7383V210.811L98.7748 210.901L99.2383 210.714ZM98.1748 187.188L97.7642 187.474L97.7716 187.484L98.1748 187.188ZM95.21 185.19H94.71V185.575L95.0811 185.674L95.21 185.19ZM95.21 182.548L95.2365 182.049L94.71 182.021V182.548H95.21ZM96.3933 198.094C90.5609 200.205 87.4268 203.372 87.4268 207.685H88.4268C88.4268 204.005 91.0504 201.092 96.7336 199.035L96.3933 198.094ZM87.4268 207.685C87.4268 209.376 87.8334 210.794 88.6932 211.892L89.4807 211.276C88.7935 210.398 88.4268 209.216 88.4268 207.685H87.4268ZM88.6965 211.896C89.5867 213.009 90.8967 213.534 92.5352 213.534V212.534C91.1228 212.534 90.134 212.093 89.4773 211.272L88.6965 211.896ZM92.5352 213.534C94.2206 213.534 95.6889 212.908 96.917 211.68L96.2099 210.973C95.1607 212.022 93.9435 212.534 92.5352 212.534V213.534ZM96.0635 211.326V214.388H97.0635V211.326H96.0635ZM96.307 213.958C94.7366 214.897 92.9574 215.37 90.9561 215.37V216.37C93.1227 216.37 95.0818 215.855 96.8199 214.817L96.307 213.958ZM90.9561 215.37C88.8982 215.37 87.2803 215.168 86.082 214.782L85.7754 215.734C87.1123 216.164 88.8459 216.37 90.9561 216.37V215.37ZM86.0844 214.783C84.8873 214.391 83.8922 213.859 83.0887 213.196L82.4523 213.968C83.3675 214.723 84.478 215.309 85.7731 215.733L86.0844 214.783ZM83.0846 213.193C81.4231 211.852 80.5957 210.096 80.5957 207.878H79.5957C79.5957 210.387 80.5515 212.433 82.4564 213.971L83.0846 213.193ZM80.5957 207.878C80.5957 205.611 81.5932 203.602 83.6666 201.838C85.7546 200.06 88.925 198.541 93.2213 197.305L92.9447 196.344C88.5829 197.599 85.2596 199.169 83.0185 201.076C80.7628 202.996 79.5957 205.268 79.5957 207.878H80.5957ZM93.2259 197.303C94.4449 196.94 95.5985 196.619 96.687 196.342L96.44 195.373C95.337 195.654 94.1703 195.978 92.9401 196.345L93.2259 197.303ZM96.0635 195.857V198.564H97.0635V195.857H96.0635ZM88.7474 187.494C89.2379 187.682 89.5871 187.979 89.8213 188.388C90.0606 188.805 90.1982 189.373 90.1982 190.121H91.1982C91.1982 189.258 91.0405 188.504 90.689 187.891C90.3323 187.268 89.7953 186.824 89.1041 186.56L88.7474 187.494ZM90.1982 190.121C90.1982 191.018 89.8881 191.702 89.2781 192.222L89.927 192.983C90.7779 192.257 91.1982 191.286 91.1982 190.121H90.1982ZM89.2781 192.222C88.6622 192.747 87.801 193.037 86.6377 193.037V194.037C87.9666 194.037 89.0819 193.704 89.927 192.983L89.2781 192.222ZM86.6377 193.037C85.5066 193.037 84.6597 192.732 84.042 192.169L83.3682 192.908C84.2114 193.676 85.3196 194.037 86.6377 194.037V193.037ZM84.0474 192.174C83.4479 191.61 83.1416 190.887 83.1416 189.96H82.1416C82.1416 191.138 82.5443 192.134 83.3627 192.903L84.0474 192.174ZM83.1416 189.96C83.1416 188.989 83.3684 188.133 83.8135 187.378L82.9521 186.87C82.4089 187.791 82.1416 188.825 82.1416 189.96H83.1416ZM83.8135 187.378C84.2675 186.608 84.9147 185.917 85.7682 185.307L85.1869 184.494C84.2357 185.173 83.4864 185.964 82.9521 186.87L83.8135 187.378ZM85.7708 185.305C87.5494 184.017 89.8078 183.256 92.5729 183.046L92.4974 182.049C89.5907 182.269 87.1439 183.076 85.1843 184.495L85.7708 185.305ZM92.0352 182.548V184.997H93.0352V182.548H92.0352ZM92.486 184.499C90.6357 184.682 89.2589 185.418 88.4902 186.782L89.3614 187.273C89.9247 186.273 90.9541 185.656 92.5843 185.495L92.486 184.499ZM108.101 212.31C108.874 212.31 109.503 211.944 109.96 211.291C110.401 210.662 110.685 209.768 110.851 208.661L109.862 208.513C109.706 209.555 109.453 210.272 109.141 210.717C108.847 211.138 108.508 211.31 108.101 211.31V212.31ZM110.123 209.029L111.766 209.899L112.234 209.015L110.59 208.145L110.123 209.029ZM111.503 209.406C111.294 211.432 110.736 212.909 109.881 213.9L110.638 214.553C111.674 213.352 112.277 211.651 112.497 209.508L111.503 209.406ZM109.878 213.904C109.084 214.846 107.771 215.37 105.812 215.37V216.37C107.936 216.37 109.588 215.799 110.642 214.549L109.878 213.904ZM105.812 215.37C104.267 215.37 103.214 215.085 102.568 214.6L101.968 215.4C102.868 216.075 104.178 216.37 105.812 216.37V215.37ZM102.57 214.602C101.415 213.726 100.452 212.381 99.7018 210.526L98.7748 210.901C99.5715 212.871 100.628 214.384 101.965 215.398L102.57 214.602ZM99.7383 210.714V190.637H98.7383V210.714H99.7383ZM99.7383 190.637C99.7383 189.211 99.3568 187.955 98.578 186.893L97.7716 187.484C98.4107 188.356 98.7383 189.399 98.7383 190.637H99.7383ZM98.5853 186.903C97.8228 185.807 96.7289 185.078 95.3388 184.707L95.0811 185.674C96.2691 185.99 97.1518 186.594 97.7644 187.474L98.5853 186.903ZM95.71 185.19V182.548H94.71V185.19H95.71ZM95.1834 183.047C98.746 183.236 101.337 184.266 103.041 186.066C104.745 187.866 105.635 190.511 105.635 194.085H106.635C106.635 190.354 105.704 187.424 103.767 185.378C101.829 183.332 98.9571 182.246 95.2365 182.049L95.1834 183.047ZM105.635 194.085V209.328H106.635V194.085H105.635ZM105.635 209.328C105.635 210.208 105.807 210.96 106.234 211.5C106.679 212.062 107.333 212.31 108.101 212.31V211.31C107.557 211.31 107.228 211.144 107.018 210.879C106.79 210.591 106.635 210.103 106.635 209.328H105.635ZM124.021 187.027H124.521V187.013L124.52 186.999L124.021 187.027ZM124.021 222.509H123.521V222.519L123.521 222.53L124.021 222.509ZM125.438 224.732L125.215 225.18L125.224 225.184L125.233 225.188L125.438 224.732ZM126.856 225.248L127.015 224.774L127.006 224.771L126.996 224.768L126.856 225.248ZM128.468 225.893H128.968V225.573L128.677 225.439L128.468 225.893ZM128.468 227.601V228.101H128.968V227.601H128.468ZM113.096 227.601H112.596V228.101H113.096V227.601ZM113.096 225.893L112.848 225.458L112.596 225.602V225.893H113.096ZM114.481 225.248L114.336 224.77L114.323 224.774L114.311 224.778L114.481 225.248ZM115.803 224.732L116.026 225.18L116.033 225.176L116.039 225.173L115.803 224.732ZM115.835 185.996L115.601 186.438L115.611 186.443L115.835 185.996ZM114.546 185.545L114.414 186.027L114.427 186.031L114.44 186.034L114.546 185.545ZM113.096 184.965H112.596V185.268L112.864 185.408L113.096 184.965ZM113.096 182.999V182.499H112.596V182.999H113.096ZM123.795 182.999L124.294 182.971L124.268 182.499H123.795V182.999ZM126.695 214.903L126.195 214.898L126.192 215.224L126.488 215.359L126.695 214.903ZM126.728 212.035L127.007 211.62L126.238 211.103L126.228 212.03L126.728 212.035ZM133.108 212.293L133.373 212.717L133.376 212.715L133.108 212.293ZM135.332 209.779L135.772 210.016L135.773 210.014L135.332 209.779ZM133.205 186.383L133.459 185.952L133.452 185.948L133.205 186.383ZM129.209 186.028L129.423 186.48L129.433 186.476L129.209 186.028ZM128.113 186.77L127.772 186.404L127.77 186.406L128.113 186.77ZM126.695 188.671H126.195V190.429L127.12 188.934L126.695 188.671ZM126.695 184.127L126.415 183.713L126.195 183.861V184.127H126.695ZM137.266 183.837L137.021 184.273L137.025 184.275L137.266 183.837ZM141.326 187.414L140.925 187.713L140.927 187.716L141.326 187.414ZM141.165 211.455L141.548 211.777L141.55 211.774L141.165 211.455ZM123.521 187.027V222.509H124.521V187.027H123.521ZM123.521 222.53C123.545 223.118 123.694 223.65 123.986 224.107C124.277 224.565 124.695 224.92 125.215 225.18L125.662 224.285C125.28 224.094 125.01 223.853 124.829 223.569C124.648 223.285 124.539 222.931 124.52 222.488L123.521 222.53ZM125.233 225.188C125.687 225.392 126.182 225.572 126.716 225.728L126.996 224.768C126.5 224.623 126.05 224.459 125.644 224.276L125.233 225.188ZM126.698 225.722C127.194 225.888 127.714 226.095 128.258 226.347L128.677 225.439C128.104 225.174 127.55 224.952 127.015 224.774L126.698 225.722ZM127.968 225.893V227.601H128.968V225.893H127.968ZM128.468 227.101H113.096V228.101H128.468V227.101ZM113.596 227.601V225.893H112.596V227.601H113.596ZM113.344 226.327C113.771 226.083 114.207 225.88 114.652 225.718L114.311 224.778C113.81 224.96 113.323 225.187 112.848 225.458L113.344 226.327ZM114.627 225.726C115.143 225.569 115.61 225.388 116.026 225.18L115.579 224.285C115.222 224.464 114.808 224.626 114.336 224.77L114.627 225.726ZM116.039 225.173C116.547 224.901 116.95 224.538 117.224 224.077C117.497 223.617 117.624 223.088 117.624 222.509H116.624C116.624 222.939 116.531 223.286 116.364 223.567C116.197 223.847 115.94 224.092 115.566 224.292L116.039 225.173ZM117.624 222.509V188.349H116.624V222.509H117.624ZM117.624 188.349C117.624 187.718 117.505 187.149 117.24 186.666C116.973 186.178 116.572 185.806 116.059 185.549L115.611 186.443C115.957 186.616 116.201 186.851 116.363 187.147C116.528 187.448 116.624 187.841 116.624 188.349H117.624ZM116.069 185.554C115.656 185.335 115.181 185.171 114.652 185.056L114.44 186.034C114.899 186.133 115.284 186.27 115.601 186.438L116.069 185.554ZM114.677 185.063C114.244 184.944 113.794 184.765 113.327 184.522L112.864 185.408C113.386 185.68 113.903 185.888 114.414 186.027L114.677 185.063ZM113.596 184.965V182.999H112.596V184.965H113.596ZM113.096 183.499H123.795V182.499H113.096V183.499ZM123.296 183.027L123.521 187.055L124.52 186.999L124.294 182.971L123.296 183.027ZM131.594 215.37C129.804 215.37 128.244 215.058 126.902 214.448L126.488 215.359C127.982 216.038 129.688 216.37 131.594 216.37V215.37ZM127.195 214.909L127.228 212.041L126.228 212.03L126.195 214.898L127.195 214.909ZM126.448 212.45C127.575 213.209 128.778 213.599 130.047 213.599V212.599C128.996 212.599 127.985 212.279 127.007 211.62L126.448 212.45ZM130.047 213.599C131.306 213.599 132.422 213.312 133.373 212.717L132.843 211.869C132.076 212.349 131.151 212.599 130.047 212.599V213.599ZM133.376 212.715C134.344 212.102 135.139 211.193 135.772 210.016L134.892 209.542C134.322 210.6 133.635 211.367 132.841 211.871L133.376 212.715ZM135.773 210.014C137.076 207.565 137.701 204.02 137.701 199.435H136.701C136.701 203.958 136.08 207.31 134.891 209.544L135.773 210.014ZM137.701 199.435C137.701 195.843 137.367 192.917 136.68 190.676C135.995 188.436 134.94 186.824 133.459 185.952L132.951 186.814C134.134 187.51 135.078 188.857 135.724 190.968C136.37 193.077 136.701 195.893 136.701 199.435H137.701ZM133.452 185.948C132.6 185.465 131.753 185.206 130.917 185.206V186.206C131.542 186.206 132.22 186.399 132.958 186.818L133.452 185.948ZM130.917 185.206C130.164 185.206 129.51 185.319 128.985 185.581L129.433 186.476C129.768 186.308 130.252 186.206 130.917 186.206V185.206ZM128.995 185.576C128.541 185.791 128.133 186.067 127.772 186.404L128.454 187.135C128.738 186.87 129.06 186.652 129.423 186.48L128.995 185.576ZM127.77 186.406C127.334 186.818 126.834 187.497 126.27 188.408L127.12 188.934C127.674 188.04 128.119 187.452 128.457 187.133L127.77 186.406ZM127.195 188.671V184.127H126.195V188.671H127.195ZM126.975 184.541C128.482 183.523 130.146 183.016 131.98 183.016V182.016C129.948 182.016 128.089 182.582 126.415 183.713L126.975 184.541ZM131.98 183.016C133.857 183.016 135.534 183.438 137.021 184.273L137.51 183.401C135.861 182.475 134.014 182.016 131.98 182.016V183.016ZM137.025 184.275C138.527 185.098 139.827 186.241 140.925 187.713L141.727 187.115C140.548 185.536 139.141 184.294 137.506 183.398L137.025 184.275ZM140.927 187.716C143.257 190.794 144.436 194.625 144.436 199.241H145.436C145.436 194.447 144.208 190.394 141.725 187.112L140.927 187.716ZM144.436 199.241C144.436 204.273 143.2 208.22 140.78 211.136L141.55 211.774C144.158 208.631 145.436 204.436 145.436 199.241H144.436ZM140.782 211.134C138.408 213.962 135.359 215.37 131.594 215.37V216.37C135.649 216.37 138.98 214.835 141.548 211.777L140.782 211.134ZM159.405 187.027H159.905V187.013L159.904 186.999L159.405 187.027ZM159.405 222.509H158.905V222.519L158.906 222.53L159.405 222.509ZM160.823 224.732L160.6 225.18L160.609 225.184L160.618 225.188L160.823 224.732ZM162.241 225.248L162.399 224.774L162.39 224.771L162.381 224.768L162.241 225.248ZM163.853 225.893H164.353V225.573L164.062 225.439L163.853 225.893ZM163.853 227.601V228.101H164.353V227.601H163.853ZM148.48 227.601H147.98V228.101H148.48V227.601ZM148.48 225.893L148.232 225.458L147.98 225.602V225.893H148.48ZM149.866 225.248L149.721 224.77L149.708 224.774L149.695 224.778L149.866 225.248ZM151.188 224.732L151.411 225.18L151.418 225.176L151.424 225.173L151.188 224.732ZM151.22 185.996L150.986 186.438L150.996 186.443L151.22 185.996ZM149.931 185.545L149.799 186.027L149.812 186.031L149.824 186.034L149.931 185.545ZM148.48 184.965H147.98V185.268L148.249 185.408L148.48 184.965ZM148.48 182.999V182.499H147.98V182.999H148.48ZM159.18 182.999L159.679 182.971L159.652 182.499H159.18V182.999ZM162.08 214.903L161.58 214.898L161.576 215.224L161.873 215.359L162.08 214.903ZM162.112 212.035L162.392 211.62L161.623 211.103L161.612 212.03L162.112 212.035ZM168.493 212.293L168.758 212.717L168.761 212.715L168.493 212.293ZM170.717 209.779L171.157 210.016L171.158 210.014L170.717 209.779ZM168.59 186.383L168.844 185.952L168.837 185.948L168.59 186.383ZM164.594 186.028L164.808 186.48L164.817 186.476L164.594 186.028ZM163.498 186.77L163.157 186.404L163.155 186.406L163.498 186.77ZM162.08 188.671H161.58V190.429L162.505 188.934L162.08 188.671ZM162.08 184.127L161.8 183.713L161.58 183.861V184.127H162.08ZM172.65 183.837L172.406 184.273L172.41 184.275L172.65 183.837ZM176.711 187.414L176.31 187.713L176.312 187.716L176.711 187.414ZM176.55 211.455L176.933 211.777L176.935 211.774L176.55 211.455ZM158.905 187.027V222.509H159.905V187.027H158.905ZM158.906 222.53C158.93 223.118 159.079 223.65 159.37 224.107C159.662 224.565 160.08 224.92 160.6 225.18L161.047 224.285C160.664 224.094 160.394 223.853 160.214 223.569C160.032 223.285 159.923 222.931 159.905 222.488L158.906 222.53ZM160.618 225.188C161.072 225.392 161.566 225.572 162.101 225.728L162.381 224.768C161.885 224.623 161.434 224.459 161.028 224.276L160.618 225.188ZM162.083 225.722C162.579 225.888 163.099 226.095 163.643 226.347L164.062 225.439C163.489 225.174 162.935 224.952 162.399 224.774L162.083 225.722ZM163.353 225.893V227.601H164.353V225.893H163.353ZM163.853 227.101H148.48V228.101H163.853V227.101ZM148.98 227.601V225.893H147.98V227.601H148.98ZM148.729 226.327C149.156 226.083 149.592 225.88 150.037 225.718L149.695 224.778C149.195 224.96 148.707 225.187 148.232 225.458L148.729 226.327ZM150.012 225.726C150.528 225.569 150.995 225.388 151.411 225.18L150.964 224.285C150.607 224.464 150.193 224.626 149.721 224.77L150.012 225.726ZM151.424 225.173C151.931 224.901 152.335 224.538 152.608 224.077C152.882 223.617 153.009 223.088 153.009 222.509H152.009C152.009 222.939 151.916 223.286 151.749 223.567C151.582 223.847 151.324 224.092 150.951 224.292L151.424 225.173ZM153.009 222.509V188.349H152.009V222.509H153.009ZM153.009 188.349C153.009 187.718 152.89 187.149 152.625 186.666C152.358 186.178 151.957 185.806 151.443 185.549L150.996 186.443C151.342 186.616 151.586 186.851 151.748 187.147C151.913 187.448 152.009 187.841 152.009 188.349H153.009ZM151.454 185.554C151.04 185.335 150.566 185.171 150.037 185.056L149.824 186.034C150.284 186.133 150.669 186.27 150.986 186.438L151.454 185.554ZM150.062 185.063C149.628 184.944 149.178 184.765 148.712 184.522L148.249 185.408C148.771 185.68 149.288 185.888 149.799 186.027L150.062 185.063ZM148.98 184.965V182.999H147.98V184.965H148.98ZM148.48 183.499H159.18V182.499H148.48V183.499ZM158.68 183.027L158.906 187.055L159.904 186.999L159.679 182.971L158.68 183.027ZM166.979 215.37C165.189 215.37 163.629 215.058 162.287 214.448L161.873 215.359C163.367 216.038 165.073 216.37 166.979 216.37V215.37ZM162.58 214.909L162.612 212.041L161.612 212.03L161.58 214.898L162.58 214.909ZM161.833 212.45C162.96 213.209 164.163 213.599 165.432 213.599V212.599C164.38 212.599 163.37 212.279 162.392 211.62L161.833 212.45ZM165.432 213.599C166.691 213.599 167.807 213.312 168.758 212.717L168.228 211.869C167.461 212.349 166.535 212.599 165.432 212.599V213.599ZM168.761 212.715C169.728 212.102 170.524 211.193 171.157 210.016L170.277 209.542C169.707 210.6 169.02 211.367 168.225 211.871L168.761 212.715ZM171.158 210.014C172.461 207.565 173.086 204.02 173.086 199.435H172.086C172.086 203.958 171.465 207.31 170.275 209.544L171.158 210.014ZM173.086 199.435C173.086 195.843 172.751 192.917 172.065 190.676C171.379 188.436 170.325 186.824 168.844 185.952L168.336 186.814C169.519 187.51 170.462 188.857 171.109 190.968C171.755 193.077 172.086 195.893 172.086 199.435H173.086ZM168.837 185.948C167.985 185.465 167.138 185.206 166.302 185.206V186.206C166.927 186.206 167.605 186.399 168.343 186.818L168.837 185.948ZM166.302 185.206C165.549 185.206 164.894 185.319 164.37 185.581L164.817 186.476C165.153 186.308 165.636 186.206 166.302 186.206V185.206ZM164.38 185.576C163.926 185.791 163.518 186.067 163.157 186.404L163.839 187.135C164.123 186.87 164.445 186.652 164.808 186.48L164.38 185.576ZM163.155 186.406C162.719 186.818 162.218 187.497 161.655 188.408L162.505 188.934C163.059 188.04 163.504 187.452 163.841 187.133L163.155 186.406ZM162.58 188.671V184.127H161.58V188.671H162.58ZM162.36 184.541C163.867 183.523 165.531 183.016 167.365 183.016V182.016C165.333 182.016 163.473 182.582 161.8 183.713L162.36 184.541ZM167.365 183.016C169.242 183.016 170.918 183.438 172.406 184.273L172.895 183.401C171.246 182.475 169.398 182.016 167.365 182.016V183.016ZM172.41 184.275C173.912 185.098 175.212 186.241 176.31 187.713L177.112 187.115C175.933 185.536 174.526 184.294 172.891 183.398L172.41 184.275ZM176.312 187.716C178.641 190.794 179.82 194.625 179.82 199.241H180.82C180.82 194.447 179.593 190.394 177.11 187.112L176.312 187.716ZM179.82 199.241C179.82 204.273 178.584 208.22 176.165 211.136L176.935 211.774C179.543 208.631 180.82 204.436 180.82 199.241H179.82ZM176.167 211.134C173.793 213.962 170.744 215.37 166.979 215.37V216.37C171.033 216.37 174.365 214.835 176.933 211.777L176.167 211.134ZM198.109 213.292L198.037 212.797L197.609 212.86V213.292H198.109ZM201.977 211.52L202.326 211.877L202.326 211.877L201.977 211.52ZM202.686 205.235L202.275 205.521L202.28 205.528L202.286 205.535L202.686 205.235ZM200.688 203.431L200.421 203.853L200.427 203.857L200.434 203.861L200.688 203.431ZM197.884 202.077L197.703 202.543L197.711 202.546L197.884 202.077ZM194.661 200.885L194.487 201.353L194.495 201.356L194.661 200.885ZM188.603 197.759L188.282 198.143L188.285 198.145L188.603 197.759ZM188.377 185.867L188.735 186.216L188.738 186.213L188.377 185.867ZM195.789 182.548H196.289V182.008L195.75 182.049L195.789 182.548ZM195.789 185.094L195.882 185.585L196.289 185.508V185.094H195.789ZM192.792 186.641L192.429 186.297L192.424 186.302L192.792 186.641ZM192.47 192.022L192.079 192.335L192.085 192.341L192.47 192.022ZM194.5 193.666L194.254 194.102L194.261 194.105L194.268 194.109L194.5 193.666ZM197.4 194.923L197.231 195.393L197.242 195.397L197.4 194.923ZM200.752 196.115L200.575 196.583L200.583 196.586L200.752 196.115ZM204.071 197.501L203.855 197.952L203.866 197.957L204.071 197.501ZM206.972 199.37L206.638 199.742L206.64 199.744L206.972 199.37ZM207.165 212.164L206.803 211.819L206.803 211.819L207.165 212.164ZM198.109 215.838H197.609V216.369L198.139 216.337L198.109 215.838ZM202.073 187.027L202.252 187.494L202.794 187.287L202.509 186.782L202.073 187.027ZM198.464 184.997H197.964V185.45L198.415 185.495L198.464 184.997ZM198.464 182.548L198.502 182.049L197.964 182.009V182.548H198.464ZM205.554 184.9L205.847 184.495L205.845 184.494L205.554 184.9ZM207.262 192.538L206.925 192.169L206.919 192.174L207.262 192.538ZM191.825 211.358L191.647 210.891L191.105 211.098L191.39 211.604L191.825 211.358ZM195.435 213.389H195.935V212.936L195.484 212.891L195.435 213.389ZM195.435 215.838L195.404 216.337L195.935 216.37V215.838H195.435ZM188.345 213.485L188.051 213.89L188.054 213.892L188.345 213.485ZM186.604 205.848L186.268 205.478L186.262 205.483L186.604 205.848ZM198.182 213.787C199.876 213.538 201.269 212.91 202.326 211.877L201.627 211.162C200.75 212.019 199.566 212.573 198.037 212.797L198.182 213.787ZM202.326 211.877C203.401 210.826 203.959 209.583 203.959 208.168H202.959C202.959 209.288 202.529 210.28 201.627 211.162L202.326 211.877ZM203.959 208.168C203.959 206.841 203.69 205.742 203.086 204.935L202.286 205.535C202.712 206.104 202.959 206.959 202.959 208.168H203.959ZM203.096 204.949C202.556 204.175 201.833 203.526 200.941 203L200.434 203.861C201.217 204.324 201.827 204.878 202.275 205.521L203.096 204.949ZM200.954 203.008C200.104 202.471 199.137 202.005 198.056 201.608L197.711 202.546C198.736 202.923 199.638 203.359 200.421 203.853L200.954 203.008ZM198.065 201.611C197.007 201.201 195.928 200.802 194.828 200.413L194.495 201.356C195.586 201.741 196.655 202.137 197.703 202.543L198.065 201.611ZM194.836 200.416C193.753 200.013 192.691 199.567 191.651 199.079L191.226 199.984C192.291 200.484 193.378 200.94 194.487 201.353L194.836 200.416ZM191.651 199.079C190.633 198.601 189.723 198.032 188.92 197.372L188.285 198.145C189.158 198.861 190.139 199.473 191.226 199.984L191.651 199.079ZM188.923 197.375C187.216 195.949 186.363 194.094 186.363 191.765H185.363C185.363 194.377 186.337 196.518 188.282 198.143L188.923 197.375ZM186.363 191.765C186.363 189.694 187.142 187.85 188.735 186.216L188.019 185.518C186.261 187.322 185.363 189.41 185.363 191.765H186.363ZM188.738 186.213C190.534 184.336 192.884 183.274 195.828 183.046L195.75 182.049C192.593 182.294 190.002 183.445 188.016 185.522L188.738 186.213ZM195.289 182.548V185.094H196.289V182.548H195.289ZM195.696 184.603C194.364 184.855 193.264 185.414 192.429 186.297L193.155 186.984C193.824 186.277 194.722 185.805 195.882 185.585L195.696 184.603ZM192.424 186.302C191.609 187.189 191.196 188.244 191.196 189.444H192.196C192.196 188.496 192.514 187.682 193.16 186.979L192.424 186.302ZM191.196 189.444C191.196 190.598 191.474 191.578 192.079 192.335L192.86 191.71C192.434 191.178 192.196 190.44 192.196 189.444H191.196ZM192.085 192.341C192.646 193.019 193.373 193.604 194.254 194.102L194.746 193.231C193.951 192.782 193.325 192.272 192.855 191.704L192.085 192.341ZM194.268 194.109C195.15 194.572 196.139 195 197.231 195.393L197.57 194.452C196.514 194.072 195.568 193.662 194.732 193.223L194.268 194.109ZM197.242 195.397C198.331 195.76 199.443 196.156 200.575 196.583L200.928 195.647C199.784 195.216 198.661 194.816 197.559 194.449L197.242 195.397ZM200.583 196.586C201.706 196.988 202.796 197.444 203.855 197.952L204.288 197.05C203.198 196.527 202.075 196.058 200.921 195.645L200.583 196.586ZM203.866 197.957C204.918 198.431 205.841 199.027 206.638 199.742L207.306 198.998C206.427 198.209 205.416 197.559 204.277 197.045L203.866 197.957ZM206.64 199.744C208.417 201.319 209.308 203.35 209.308 205.88H210.308C210.308 203.082 209.307 200.772 207.303 198.996L206.64 199.744ZM209.308 205.88C209.308 208.081 208.485 210.055 206.803 211.819L207.527 212.509C209.369 210.578 210.308 208.362 210.308 205.88H209.308ZM206.803 211.819C204.808 213.916 201.923 215.108 198.079 215.339L198.139 216.337C202.16 216.095 205.312 214.837 207.527 212.509L206.803 211.819ZM198.609 215.838V213.292H197.609V215.838H198.609ZM200.801 190.121C200.801 189.373 200.938 188.805 201.178 188.388C201.412 187.979 201.761 187.682 202.252 187.494L201.895 186.56C201.204 186.824 200.667 187.268 200.31 187.891C199.959 188.504 199.801 189.258 199.801 190.121H200.801ZM202.509 186.782C201.74 185.418 200.363 184.682 198.513 184.499L198.415 185.495C200.045 185.656 201.074 186.273 201.638 187.273L202.509 186.782ZM198.964 184.997V182.548H197.964V184.997H198.964ZM198.426 183.046C201.191 183.256 203.461 184.017 205.263 185.307L205.845 184.494C203.865 183.076 201.408 182.269 198.502 182.049L198.426 183.046ZM205.26 185.305C207.03 186.587 207.857 188.081 207.857 189.799H208.857C208.857 187.692 207.816 185.921 205.847 184.495L205.26 185.305ZM207.857 189.799C207.857 190.845 207.533 191.614 206.925 192.169L207.599 192.908C208.451 192.13 208.857 191.073 208.857 189.799H207.857ZM206.919 192.174C206.327 192.73 205.485 193.037 204.329 193.037V194.037C205.665 194.037 206.778 193.678 207.604 192.903L206.919 192.174ZM204.329 193.037C203.19 193.037 202.338 192.749 201.721 192.222L201.072 192.983C201.916 193.702 203.019 194.037 204.329 194.037V193.037ZM201.721 192.222C201.111 191.702 200.801 191.018 200.801 190.121H199.801C199.801 191.286 200.221 192.257 201.072 192.983L201.721 192.222ZM193.098 208.265C193.098 209.013 192.96 209.58 192.721 209.998C192.487 210.407 192.137 210.704 191.647 210.891L192.004 211.826C192.695 211.562 193.232 211.118 193.588 210.495C193.94 209.882 194.098 209.128 194.098 208.265H193.098ZM191.39 211.604C192.158 212.968 193.535 213.704 195.385 213.886L195.484 212.891C193.854 212.73 192.824 212.112 192.261 211.113L191.39 211.604ZM194.935 213.389V215.838H195.935V213.389H194.935ZM195.466 215.339C192.773 215.172 190.503 214.412 188.635 213.078L188.054 213.892C190.097 215.351 192.554 216.16 195.404 216.337L195.466 215.339ZM188.638 213.08C186.868 211.799 186.041 210.305 186.041 208.587H185.041C185.041 210.693 186.083 212.465 188.051 213.89L188.638 213.08ZM186.041 208.587C186.041 207.536 186.358 206.766 186.947 206.212L186.262 205.483C185.433 206.262 185.041 207.318 185.041 208.587H186.041ZM186.941 206.217C187.559 205.654 188.406 205.349 189.537 205.349V204.349C188.219 204.349 187.111 204.709 186.268 205.478L186.941 206.217ZM189.537 205.349C190.7 205.349 191.562 205.638 192.177 206.164L192.826 205.403C191.981 204.682 190.866 204.349 189.537 204.349V205.349ZM192.177 206.164C192.788 206.684 193.098 207.367 193.098 208.265H194.098C194.098 207.099 193.677 206.129 192.826 205.403L192.177 206.164Z" fill="#800000"/>
<path d="M145.5 97L208.287 205.75H82.7132L145.5 97Z" fill="#8A3434"/>
<path d="M109.357 121.422C111.119 121.422 112.709 120.734 114.127 119.359V123.065C112.193 124.269 109.809 124.87 106.973 124.87C102.289 124.87 99.3779 123.227 98.2393 119.939C97.8525 118.801 97.6592 117.426 97.6592 115.814V97.542C97.6592 96.4248 97.2402 95.6406 96.4023 95.1895C96.0371 94.9961 95.6289 94.8457 95.1777 94.7383C94.7266 94.6094 94.2969 94.416 93.8887 94.1582V92.1924H104.556V116.395C104.556 119.746 106.156 121.422 109.357 121.422ZM116.802 97.542C116.802 96.4033 116.372 95.6191 115.513 95.1895C115.126 94.9961 114.696 94.8457 114.224 94.7383C113.751 94.6094 113.278 94.416 112.806 94.1582V92.1924H123.666V118.715C123.666 119.832 124.106 120.605 124.987 121.035C125.374 121.229 125.793 121.39 126.244 121.519C126.695 121.647 127.125 121.841 127.533 122.099V124H117.253L116.802 120.584V97.542ZM152.702 104.793C152.702 98.6055 151.155 95.125 148.062 94.3516V91.5801C152.079 91.9453 155.173 93.6318 157.343 96.6396C159.384 99.4541 160.404 103.117 160.404 107.629H142.164V104.793H152.702ZM148.19 122.034C151.929 121.862 154.582 120.101 156.15 116.749C156.602 115.782 156.988 114.794 157.311 113.784L160.082 114.815C158.879 119.306 156.419 122.324 152.702 123.871C151.392 124.408 149.888 124.73 148.19 124.838V122.034ZM139.457 106.179C139.457 115.417 141.477 120.616 145.516 121.776V124.741C141.305 124.269 137.964 122.518 135.493 119.488C133.022 116.502 131.787 112.753 131.787 108.241C131.787 103.493 133.022 99.5938 135.493 96.543C137.985 93.4707 141.283 91.8057 145.387 91.5479V94.2227C141.434 94.6953 139.457 98.6807 139.457 106.179ZM175.97 117.522C175.97 119.499 176.399 120.691 177.259 121.1C177.517 121.207 177.796 121.314 178.097 121.422C178.978 121.701 179.611 121.991 179.998 122.292V124H165.013V122.292C165.485 121.905 165.969 121.658 166.463 121.551C166.957 121.443 167.397 121.293 167.784 121.1C168.665 120.627 169.105 119.435 169.105 117.522V84.7803C169.105 82.6318 168.687 81.3857 167.849 81.042C167.591 80.9346 167.312 80.8379 167.011 80.752C166.065 80.5371 165.399 80.2793 165.013 79.9785V78.0127H175.97V117.522ZM178.645 104.729L184.381 99.3789C185.863 98.0039 186.604 96.9941 186.604 96.3496C186.604 95.7051 185.745 95.2109 184.026 94.8672C183.554 94.7598 183.113 94.6094 182.705 94.416V92.3857H197.014V94.2871C196.52 94.5234 195.982 94.7705 195.402 95.0283C194.822 95.2646 194.167 95.5977 193.437 96.0273C191.718 97.0156 189.892 98.4443 187.958 100.313L184.284 103.858L193.952 119.521C194.511 120.466 195.112 121.046 195.757 121.261C196.423 121.476 196.949 121.637 197.336 121.744C197.723 121.83 198.12 121.991 198.528 122.228V124H184.381V122.292C185.434 121.798 185.981 121.046 186.024 120.036C186.024 119.757 185.96 119.499 185.831 119.263L178.645 106.662V104.729ZM96.5635 198.564C90.8057 200.648 87.9268 203.688 87.9268 207.685C87.9268 209.296 88.3135 210.596 89.0869 211.584C89.8604 212.551 91.0098 213.034 92.5352 213.034C94.082 213.034 95.4248 212.465 96.5635 211.326V214.388C94.9092 215.376 93.04 215.87 90.9561 215.87C88.8721 215.87 87.1963 215.666 85.9287 215.258C84.6826 214.85 83.6299 214.291 82.7705 213.582C80.9873 212.143 80.0957 210.241 80.0957 207.878C80.0957 203.001 84.4248 199.316 93.083 196.824C94.3076 196.459 95.4678 196.137 96.5635 195.857V198.564ZM88.9258 187.027C90.1074 187.479 90.6982 188.51 90.6982 190.121C90.6982 191.152 90.333 191.979 89.6025 192.603C88.8721 193.226 87.8838 193.537 86.6377 193.537C85.4131 193.537 84.4355 193.204 83.7051 192.538C82.9961 191.872 82.6416 191.013 82.6416 189.96C82.6416 188.907 82.8887 187.962 83.3828 187.124C83.877 186.286 84.5752 185.545 85.4775 184.9C87.3467 183.547 89.6992 182.763 92.5352 182.548V184.997C90.7949 185.169 89.5918 185.846 88.9258 187.027ZM108.101 211.81C109.282 211.81 110.034 210.735 110.356 208.587L112 209.457C111.785 211.541 111.205 213.131 110.26 214.227C109.336 215.322 107.854 215.87 105.812 215.87C104.223 215.87 103.041 215.58 102.268 215C101.021 214.055 100.012 212.626 99.2383 210.714V190.637C99.2383 189.305 98.8838 188.155 98.1748 187.188C97.4873 186.2 96.499 185.534 95.21 185.19V182.548C102.493 182.935 106.135 186.78 106.135 194.085V209.328C106.135 210.982 106.79 211.81 108.101 211.81ZM124.021 187.027V222.509C124.063 223.54 124.536 224.281 125.438 224.732C125.868 224.926 126.341 225.098 126.856 225.248C127.372 225.42 127.909 225.635 128.468 225.893V227.601H113.096V225.893C113.547 225.635 114.009 225.42 114.481 225.248C114.976 225.098 115.416 224.926 115.803 224.732C116.684 224.26 117.124 223.519 117.124 222.509V188.349C117.124 187.21 116.694 186.426 115.835 185.996C115.47 185.803 115.04 185.652 114.546 185.545C114.073 185.416 113.59 185.223 113.096 184.965V182.999H123.795L124.021 187.027ZM131.594 215.87C129.746 215.87 128.113 215.548 126.695 214.903L126.728 212.035C127.78 212.744 128.887 213.099 130.047 213.099C131.229 213.099 132.249 212.83 133.108 212.293C133.989 211.734 134.73 210.896 135.332 209.779C136.578 207.438 137.201 203.989 137.201 199.435C137.201 192.302 135.869 187.951 133.205 186.383C132.41 185.932 131.647 185.706 130.917 185.706C130.208 185.706 129.639 185.813 129.209 186.028C128.801 186.222 128.436 186.469 128.113 186.77C127.727 187.135 127.254 187.769 126.695 188.671V184.127C128.285 183.053 130.047 182.516 131.98 182.516C133.936 182.516 135.697 182.956 137.266 183.837C138.834 184.696 140.188 185.889 141.326 187.414C143.732 190.594 144.936 194.536 144.936 199.241C144.936 204.354 143.679 208.426 141.165 211.455C138.694 214.398 135.504 215.87 131.594 215.87ZM159.405 187.027V222.509C159.448 223.54 159.921 224.281 160.823 224.732C161.253 224.926 161.726 225.098 162.241 225.248C162.757 225.42 163.294 225.635 163.853 225.893V227.601H148.48V225.893C148.932 225.635 149.394 225.42 149.866 225.248C150.36 225.098 150.801 224.926 151.188 224.732C152.068 224.26 152.509 223.519 152.509 222.509V188.349C152.509 187.21 152.079 186.426 151.22 185.996C150.854 185.803 150.425 185.652 149.931 185.545C149.458 185.416 148.975 185.223 148.48 184.965V182.999H159.18L159.405 187.027ZM166.979 215.87C165.131 215.87 163.498 215.548 162.08 214.903L162.112 212.035C163.165 212.744 164.271 213.099 165.432 213.099C166.613 213.099 167.634 212.83 168.493 212.293C169.374 211.734 170.115 210.896 170.717 209.779C171.963 207.438 172.586 203.989 172.586 199.435C172.586 192.302 171.254 187.951 168.59 186.383C167.795 185.932 167.032 185.706 166.302 185.706C165.593 185.706 165.023 185.813 164.594 186.028C164.186 186.222 163.82 186.469 163.498 186.77C163.111 187.135 162.639 187.769 162.08 188.671V184.127C163.67 183.053 165.432 182.516 167.365 182.516C169.32 182.516 171.082 182.956 172.65 183.837C174.219 184.696 175.572 185.889 176.711 187.414C179.117 190.594 180.32 194.536 180.32 199.241C180.32 204.354 179.063 208.426 176.55 211.455C174.079 214.398 170.889 215.87 166.979 215.87ZM198.109 213.292C199.721 213.056 201.01 212.465 201.977 211.52C202.965 210.553 203.459 209.436 203.459 208.168C203.459 206.9 203.201 205.923 202.686 205.235C202.191 204.526 201.525 203.925 200.688 203.431C199.871 202.915 198.937 202.464 197.884 202.077C196.831 201.669 195.757 201.271 194.661 200.885C193.565 200.477 192.491 200.025 191.438 199.531C190.386 199.037 189.44 198.446 188.603 197.759C186.776 196.233 185.863 194.235 185.863 191.765C185.863 189.552 186.701 187.586 188.377 185.867C190.268 183.891 192.738 182.784 195.789 182.548V185.094C194.543 185.33 193.544 185.846 192.792 186.641C192.062 187.436 191.696 188.37 191.696 189.444C191.696 190.519 191.954 191.378 192.47 192.022C192.985 192.646 193.662 193.193 194.5 193.666C195.359 194.117 196.326 194.536 197.4 194.923C198.496 195.288 199.613 195.686 200.752 196.115C201.891 196.523 202.997 196.985 204.071 197.501C205.167 197.995 206.134 198.618 206.972 199.37C208.862 201.046 209.808 203.216 209.808 205.88C209.808 208.222 208.927 210.316 207.165 212.164C205.06 214.377 202.041 215.602 198.109 215.838V213.292ZM200.301 190.121C200.301 188.51 200.892 187.479 202.073 187.027C201.407 185.846 200.204 185.169 198.464 184.997V182.548C201.3 182.763 203.663 183.547 205.554 184.9C207.423 186.254 208.357 187.887 208.357 189.799C208.357 190.959 207.992 191.872 207.262 192.538C206.553 193.204 205.575 193.537 204.329 193.537C203.104 193.537 202.127 193.226 201.396 192.603C200.666 191.979 200.301 191.152 200.301 190.121ZM193.598 208.265C193.598 209.876 193.007 210.907 191.825 211.358C192.491 212.54 193.694 213.217 195.435 213.389V215.838C192.663 215.666 190.3 214.882 188.345 213.485C186.476 212.132 185.541 210.499 185.541 208.587C185.541 207.427 185.896 206.514 186.604 205.848C187.335 205.182 188.312 204.849 189.537 204.849C190.783 204.849 191.771 205.16 192.502 205.783C193.232 206.406 193.598 207.233 193.598 208.265Z" fill="black"/>
<defs>
<filter id="filter0_d_390_6" x="10.4263" y="0" width="271.147" height="237.5" filterUnits="userSpaceOnUse" color-interpolation-filters="sRGB">
<feFlood flood-opacity="0" result="BackgroundImageFix"/>
<feColorMatrix in="SourceAlpha" type="matrix" values="0 0 0 0 0 0 0 0 0 0 0 0 0 0 0 0 0 0 127 0" result="hardAlpha"/>
<feOffset dx="1" dy="4"/>
<feGaussianBlur stdDeviation="5"/>
<feComposite in2="hardAlpha" operator="out"/>
<feColorMatrix type="matrix" values="0 0 0 0 0.501961 0 0 0 0 0 0 0 0 0 0 0 0 0 1 0"/>
<feBlend mode="normal" in2="BackgroundImageFix" result="effect1_dropShadow_390_6"/>
<feBlend mode="normal" in="SourceGraphic" in2="effect1_dropShadow_390_6" result="shape"/>
</filter>
</defs>
</svg>
