<svg width="647" height="639" viewBox="0 0 647 639" fill="none" xmlns="http://www.w3.org/2000/svg">
<g clip-path="url(#clip0_385_2)">
<path d="M118.345 91.7141H121.342L118.944 90.5152L118.345 91.7141ZM126.137 88.1174C126.137 88.7169 126.137 88.7169 126.736 88.7169L129.134 86.9186C127.935 86.3191 127.336 86.3191 126.137 88.1174ZM102.761 104.302L104.559 103.103C105.158 102.504 105.158 101.905 105.158 101.905H103.96L102.761 104.302C102.162 104.302 102.162 103.703 102.761 104.302ZM115.947 86.9186H115.348L114.149 88.1174H115.947V86.9186ZM103.36 101.305L106.957 98.3079C107.556 97.7084 107.556 97.109 107.556 96.5096H105.758L98.5652 103.103L97.3665 105.501L101.562 101.905L103.36 101.305Z" fill="#915EFF"/>
<path d="M57.8071 149.859V148.66C58.0382 147.339 58.5278 146.077 59.2477 144.945C59.9677 143.814 60.904 142.835 62.0028 142.067L67.3972 138.47L70.3942 134.873L74.5898 130.677L76.9874 128.279L79.3849 126.481C81.5259 125.25 83.2088 123.357 84.18 121.086L86.5775 118.089C88.9285 115.783 90.9459 113.16 92.5713 110.296L93.7701 108.498L95.5682 107.299L94.3695 105.501L96.767 102.504C101.562 98.907 105.158 94.1115 109.953 90.5149L111.752 88.7166C112.389 87.2577 113.429 86.0102 114.748 85.12L119.544 82.7222H121.941C123.706 82.0315 125.184 80.7638 126.137 79.1256V77.9267C127.906 74.4608 130.603 71.5552 133.929 69.5346L138.724 66.5374L139.923 65.3385L142.32 62.9408L148.314 59.9436H149.513L142.919 62.3413L134.528 68.3357C130.932 71.3329 126.137 71.9323 123.739 76.7278H125.537C121.342 77.9267 117.146 79.725 115.348 83.9211C113.55 88.1171 110.553 87.5177 108.155 89.316C107.628 89.4519 107.162 89.7635 106.835 90.1993C106.509 90.6351 106.34 91.1693 106.357 91.7138C101.562 91.1143 99.7639 94.711 97.3664 97.1087V101.904C93.4542 103.759 90.1342 106.665 87.7763 110.296C78.1861 110.896 78.1861 122.885 69.7948 125.282H69.1954C69.0902 125.465 69.0348 125.671 69.0348 125.882C69.0348 126.092 69.0902 126.299 69.1954 126.481C67.3972 126.481 66.1985 127.68 66.7979 129.478L65.5991 132.476C61.4034 134.873 62.0028 139.069 59.6053 142.666C54.8102 145.663 53.0121 151.658 49.4158 155.854L51.2139 158.851L52.4127 157.652C54.0315 154.935 55.8338 152.331 57.8071 149.859ZM322.734 19.7813L326.331 20.9802H327.529C330.118 22.2925 333.068 22.7139 335.921 22.179C339.711 21.483 343.612 21.6884 347.309 22.7785H354.501C355.758 22.5072 357.06 22.5283 358.307 22.8401C359.554 23.1519 360.713 23.7461 361.694 24.5768C361.747 24.6679 361.774 24.7713 361.774 24.8765C361.774 24.9817 361.747 25.0851 361.694 25.1762H359.297C359.244 25.2674 359.216 25.3707 359.216 25.476C359.216 25.5812 359.244 25.6845 359.297 25.7757H363.492C365.999 24.8049 368.778 24.8049 371.284 25.7757C372.483 25.7757 371.884 26.3751 372.483 26.9745L375.48 28.1734H374.281C373.082 25.7757 371.284 25.7757 369.486 25.7757C361.421 22.0298 352.603 20.1841 343.713 20.3807H338.918C331.936 18.2475 324.619 17.4344 317.34 17.983H318.539L322.734 19.7813ZM411.443 41.361C412.203 42.1438 413.183 42.6774 414.254 42.8914C415.324 43.1055 416.434 42.9899 417.437 42.5599H421.033C417.975 40.048 414.195 38.5779 410.244 38.3639L406.048 37.165L409.045 38.9633L411.443 41.361ZM391.064 33.5684C391.064 34.1678 391.663 34.7672 392.263 35.3667H393.461L396.458 33.5684C393.362 31.646 389.886 30.4189 386.269 29.9717L390.464 32.3695L391.064 33.5684ZM435.418 49.7532L440.213 52.7504C439.014 50.952 437.816 49.7532 435.418 49.7532Z" fill="#915EFF"/>
<path d="M593.056 456.172L596.652 446.581L600.248 437.589C601.447 434.592 603.845 426.799 605.043 422.004C605.318 420.487 605.933 419.052 606.842 417.808H607.441V411.214C610.438 410.615 609.838 407.617 610.438 405.819L615.233 377.646C618.303 365.447 618.303 352.679 615.233 340.48C615.5 338.759 615.369 336.999 614.849 335.336C614.33 333.674 613.436 332.152 612.236 330.889V305.114C610.438 299.719 614.034 293.724 609.838 288.929L605.043 269.747C605.145 269.354 605.145 268.941 605.043 268.548L603.845 264.951C603.68 264.573 603.594 264.165 603.594 263.752C603.594 263.34 603.68 262.932 603.845 262.554H604.444C606.242 262.554 606.242 259.556 606.242 257.159C605.884 254.825 605.069 252.584 603.845 250.565L602.046 248.167C601.182 246.945 600.76 245.465 600.848 243.971C601.053 239.937 600.649 235.895 599.649 231.982V228.386C598.45 224.19 597.251 219.394 596.053 215.198L594.854 212.201C593.544 210.224 592.723 207.964 592.456 205.607C592.137 203.917 591.528 202.295 590.658 200.811L587.062 194.817C586.575 194.383 586.006 194.053 585.387 193.847C584.769 193.641 584.115 193.563 583.466 193.618H582.866V191.82H581.667V187.024H581.068V185.826C581.093 185.627 581.093 185.425 581.068 185.226V184.027C581.667 182.828 581.667 182.229 580.469 181.03C579.435 180.005 578.62 178.782 578.071 177.433L576.872 173.837C576.077 171.135 574.637 168.666 572.677 166.644C571.411 165.456 570.393 164.03 569.68 162.447L565.484 152.856C564.563 150.704 563.353 148.688 561.888 146.862L558.292 142.067C557.199 140.632 556.386 139.006 555.894 137.271L554.695 135.473C554.381 135.048 554.165 134.559 554.061 134.041C553.958 133.523 553.97 132.989 554.096 132.476C554.096 132.01 553.988 131.551 553.779 131.135C553.571 130.719 553.269 130.357 552.897 130.078L550.5 128.28V129.478C551.099 130.677 550.5 131.277 549.9 131.277H548.701L550.5 137.271L552.298 140.268L556.493 145.663H555.894L554.695 144.464L553.497 143.265C553.227 141.512 552.368 139.902 551.06 138.703C549.752 137.504 548.074 136.788 546.304 136.672V132.476C544.506 125.282 536.714 124.683 533.117 119.887C532.55 118.513 531.651 117.301 530.5 116.359C529.35 115.418 527.984 114.776 526.524 114.493L521.729 109.098C516.748 101.966 510.439 95.8599 503.148 91.1145L498.353 87.5178L495.956 85.7195C491.76 81.5235 489.962 74.9296 482.769 74.9296L477.974 71.9325L472.58 67.7364C471.634 65.5974 470.136 63.7484 468.241 62.379C466.345 61.0096 464.119 60.1691 461.791 59.9437C457.892 56.3977 453.144 53.9197 448.005 52.7505L449.204 53.9493L452.201 56.3471L459.993 60.5432C464.662 63.065 468.909 66.301 472.58 70.1341C475.261 72.7336 478.286 74.9523 481.571 76.728L485.167 79.7251C485.766 80.3246 486.366 80.924 485.766 81.5235H485.167L479.772 79.7251C475.504 78.9175 471.433 77.2889 467.785 74.9296L460.592 71.333L452.8 67.137H451.601C449.803 66.5375 449.204 64.7392 446.806 64.1398L442.011 62.9409L427.027 59.9437C424.94 58.9614 423.098 57.5283 421.632 55.7477C419.7 55.6723 417.829 55.0486 416.238 53.9493L410.244 51.5516C404.53 50.4065 398.918 48.8028 393.461 46.7561L389.865 45.5572L383.871 43.7589H380.874L379.676 41.9606V41.3612H370.085L366.489 38.364L364.092 39.5628L361.694 40.7617H360.495L355.101 37.7645C351.505 41.3612 348.508 36.5657 345.511 37.1651L339.517 35.3668C338.424 35.9981 337.183 36.3305 335.921 36.3305C334.658 36.3305 333.418 35.9981 332.324 35.3668H325.132C324.285 35.2238 323.518 34.7825 322.968 34.1229C322.418 33.4633 322.123 32.6287 322.135 31.7702L323.933 30.5713H327.529C327.864 31.1171 328.069 31.7323 328.129 32.3696C328.129 33.5685 329.327 33.5685 331.126 33.5685H332.324L329.927 29.9718C329.099 29.303 328.121 28.8446 327.077 28.6358C326.033 28.427 324.955 28.4741 323.933 28.773L317.939 30.5713H317.34C319.138 31.7702 318.539 32.3696 318.539 33.5685H308.948L306.551 32.3696L301.756 29.9718H301.156L296.961 28.773H283.175L285.572 27.5741L290.368 26.3752H292.166L302.355 24.5769L308.948 23.378L312.545 22.1792H305.951C299.229 20.7899 292.294 20.7899 285.572 22.1792H277.781L257.402 21.5797C249.01 22.1792 240.619 21.5797 234.026 28.773C219.041 26.3752 205.855 32.969 192.668 39.5628L179.482 44.9578C171.141 46.1391 163.382 49.9137 157.305 55.7477H159.103L162.1 53.9493L166.895 50.9522L174.687 47.3555L180.681 46.1567C184.311 43.637 188.375 41.8082 192.668 40.7617L198.063 38.9634H199.261C199.861 40.1623 202.258 38.9634 203.457 38.9634H204.656C205.255 38.9634 205.255 39.5628 204.656 39.5628L201.06 41.9606L207.053 40.1623L211.848 38.9634L204.056 43.1595L196.264 45.5572C195.495 45.7899 194.78 46.1752 194.162 46.6902C193.544 47.2051 193.036 47.8391 192.668 48.5544L190.87 51.5516H192.668L195.066 50.3527C195.681 49.4254 196.475 48.6298 197.402 48.0123C198.328 47.3949 199.367 46.9678 200.46 46.7561L209.451 43.7589H212.448C212.607 43.6794 212.791 43.6663 212.959 43.7225C213.128 43.7787 213.267 43.8996 213.347 44.0586C213.426 44.2176 213.439 44.4017 213.383 44.5703C213.327 44.7389 213.206 44.8783 213.047 44.9578C211.848 46.1567 209.451 46.7561 208.252 47.955H209.451L190.271 53.3499L167.494 62.9409C163.58 66.4649 158.837 68.9397 153.708 70.1341C150.671 72.8432 147.234 75.0673 143.519 76.728L138.724 77.9268C138.056 79.4625 136.973 80.7813 135.596 81.7344C134.22 82.6876 132.604 83.2374 130.932 83.3218L129.134 86.319C127.255 89.0236 124.798 91.2761 121.941 92.9128H121.342V92.3133L120.143 93.5122L118.944 94.7111L112.95 95.91H109.953L107.556 98.9071C106.956 99.5066 106.956 100.106 107.556 100.106H108.155C104.559 103.703 102.161 108.498 97.3664 110.296L89.5744 119.288C85.9781 126.481 78.7855 128.879 73.9904 134.873C69.1954 140.868 65.5991 158.251 50.6145 160.649L49.4158 158.851L48.217 161.848C47.69 163.569 46.8797 165.189 45.8195 166.644C43.1244 170.662 40.7207 174.869 38.6269 179.232C38.1055 180.139 37.8951 181.191 38.0275 182.229C38.1184 183.912 37.7007 185.583 36.8287 187.024L33.8318 193.618H35.0306C36.8287 193.618 36.8287 195.417 37.4281 197.215L42.2232 190.621C43.1121 188.984 44.3378 187.554 45.8195 186.425C48.1571 185.262 50.0512 183.368 51.2139 181.03L53.0121 179.232L55.4096 176.834L59.0059 170.24H60.2047C60.804 170.84 60.804 170.84 61.4034 170.24L62.6022 167.842H65.5991V172.638L68.596 169.641C68.859 169.185 68.9975 168.668 68.9975 168.142C68.9975 167.616 68.859 167.099 68.596 166.644C68.5685 166.319 68.6074 165.992 68.7105 165.683C68.8135 165.373 68.9785 165.089 69.1954 164.845C69.985 163.973 70.596 162.955 70.9935 161.848C71.2985 160.629 71.8939 159.501 72.7288 158.562C73.5638 157.622 74.6136 156.899 75.7886 156.453L77.5867 155.254L79.3849 153.456C81.4966 151.929 83.154 149.857 84.18 147.462L82.9812 145.663C82.9812 145.064 83.5806 143.865 84.18 143.265H87.1769L90.7732 138.47L94.3695 136.672H95.5682C83.265 150.005 72.2288 164.453 62.6022 179.831C49.1807 200.757 38.5041 223.32 30.8349 246.968H27.838L24.8411 244.57C23.6423 243.372 24.2417 240.374 22.4435 239.175H23.0429C24.8411 236.178 22.4435 231.982 24.8411 228.985C27.2386 225.988 25.4405 220.593 19.4466 221.792C13.4528 222.991 10.4559 224.789 11.6547 230.783C12.8534 236.778 5.66083 241.573 5.06145 248.167C4.46207 254.761 2.06454 251.164 3.26331 253.562V276.94C3.86269 281.736 0.266392 287.73 8.05837 289.528L15.8503 294.923C16.4497 297.92 12.8534 304.514 21.2448 302.716C20.1369 312.669 19.5368 322.673 19.4466 332.688C19.4466 339.282 20.046 345.875 20.046 352.469V350.071C19.4466 347.674 19.4466 345.276 18.8473 342.279L17.0491 344.077V342.878H14.0522C14.0522 345.875 13.4528 347.674 11.6547 348.273C11.1701 349.193 10.962 350.234 11.0553 351.27C11.0553 351.87 11.6547 353.069 12.254 352.469C12.8534 351.87 14.6516 353.668 16.4497 354.867C18.2479 356.066 15.251 356.665 14.0522 356.066C12.8534 355.466 12.8534 356.665 12.8534 357.864V359.662L15.8503 368.654C15.8503 370.452 15.251 372.251 15.251 374.049C15.251 375.722 15.6627 377.369 16.4497 378.844H14.6516V377.046L10.4559 375.847V372.251C10.6236 371.259 10.6236 370.245 10.4559 369.253C9.63213 365.698 9.03158 362.094 8.65775 358.463C7.51882 351.532 7.11699 344.499 7.45898 337.483C7.36569 336.447 7.57384 335.406 8.05837 334.486V335.685C8.34577 336.664 8.54634 337.667 8.65775 338.682C8.64463 339.52 8.85129 340.347 9.25713 341.08C9.85651 342.279 10.4559 343.478 11.6547 343.478C12.8534 343.478 12.254 342.878 12.254 342.279C12.1767 341.259 11.9754 340.253 11.6547 339.282C10.6439 336.796 10.0369 334.166 9.85651 331.489C9.62806 329.959 9.00872 328.513 8.05837 327.293C7.13814 325.651 6.72125 323.775 6.8596 321.898V317.102C6.8596 315.304 7.45898 313.506 7.45898 311.707C7.53528 311.288 7.52128 310.857 7.41793 310.444C7.31457 310.03 7.12423 309.644 6.8596 309.31H6.26022C1.46516 311.707 2.06454 310.509 0.266392 318.901V329.691C0.266392 333.887 -0.33299 338.083 0.266392 342.279C0.172265 346.904 0.574149 351.526 1.46516 356.066C1.60458 357.06 1.60458 358.069 1.46516 359.063C1.39983 360.881 1.60178 362.699 2.06454 364.458C2.55159 367.025 2.75261 369.639 2.66392 372.251C2.30402 375.694 2.71346 379.175 3.86269 382.441C3.99682 383.235 3.99682 384.045 3.86269 384.839C3.75091 386.461 3.95445 388.089 4.46207 389.634C5.03031 391.391 5.43168 393.197 5.66084 395.029C6.30344 399.499 7.30566 403.909 8.65775 408.217C9.26058 410.169 9.66225 412.177 9.85651 414.211C10.1309 415.728 10.7457 417.163 11.6547 418.407C13.1851 420.547 14.2098 423.007 14.6516 425.6C15.1276 427.634 15.7281 429.635 16.4497 431.595L18.8473 439.987C19.5884 443.148 20.8007 446.179 22.4435 448.979C24.5919 452.944 26.2044 457.177 27.2386 461.567L28.4374 464.564C29.9596 466.255 30.9953 468.326 31.4343 470.558C31.8799 472.31 32.6976 473.946 33.8318 475.354C34.4979 476.224 34.9126 477.261 35.0306 478.351C35.63 480.149 36.2293 480.749 37.4281 480.149H38.0275V485.544L41.0244 491.539L44.0213 497.533L50.6145 504.726L53.0121 507.124C54.8102 508.922 57.2077 510.121 58.4065 513.118L60.804 514.917C61.3015 515.258 61.7197 515.702 62.03 516.219C62.3403 516.736 62.5355 517.314 62.6022 517.914L63.8009 522.11C64.6948 524.094 65.9099 525.917 67.3972 527.505L69.7948 528.704H71.5929C71.7656 528.764 71.9221 528.864 72.0504 528.994C72.1788 529.124 72.2756 529.282 72.3334 529.456C72.3913 529.629 72.4086 529.814 72.3842 529.995C72.3597 530.177 72.2941 530.35 72.1923 530.502C72.0922 531.499 72.0922 532.503 72.1923 533.499C72.5971 534.758 73.4503 535.825 74.5898 536.496H75.7886C78.1861 535.897 80.5837 537.695 82.9812 540.692H83.5806C83.5806 540.093 84.18 540.093 83.5806 539.494V538.295C83.5806 537.695 84.18 537.096 84.7793 537.695C85.3562 538.096 85.8231 538.636 86.1373 539.264C86.4514 539.893 86.6028 540.59 86.5775 541.292V542.491C87.0177 544.994 87.8256 547.418 88.975 549.684C91.9719 551.482 91.9719 551.482 91.9719 550.283C91.9719 549.085 91.9719 549.085 93.1707 549.085H95.5682L96.767 550.883L101.562 553.88C105.758 558.676 112.351 558.076 117.146 561.073L127.335 571.264H128.534C129.408 573.424 130.708 575.386 132.355 577.033C134.003 578.681 135.965 579.98 138.124 580.855C138.774 581.88 139.655 582.738 140.695 583.363C141.736 583.987 142.908 584.36 144.118 584.451C144.118 587.449 147.715 588.048 150.711 588.647C151.941 590.035 153.659 590.894 155.506 591.045H156.705C157.849 592.236 159.265 593.131 160.831 593.653C162.397 594.175 164.067 594.309 165.696 594.042L171.09 598.838L185.476 604.233V605.432C188.473 612.026 195.665 609.628 200.46 611.426L207.053 613.824H209.451C216.643 615.622 223.836 619.219 231.628 616.821C231.395 617.603 231.395 618.437 231.628 619.219C238.221 623.415 246.013 619.219 253.206 621.616C256.466 622.832 260.015 623.04 263.395 622.216H263.995L268.79 623.415H270.588L275.982 624.614H277.781C278.236 624.351 278.753 624.212 279.279 624.212C279.805 624.212 280.322 624.351 280.777 624.614C283.688 625.706 286.7 626.509 289.768 627.011H293.364C294.002 626.643 294.726 626.449 295.462 626.449C296.199 626.449 296.922 626.643 297.56 627.011H320.936C324.144 627.329 327.383 627.126 330.526 626.412H336.52L339.517 625.213H359.297L362.893 624.014L365.89 622.216H379.076V625.813H371.284L364.092 627.011C361.694 627.611 359.896 627.011 358.098 627.611C356.209 628.435 354.165 628.844 352.104 628.81L344.312 630.608H341.914C338.914 630.067 335.826 630.273 332.924 631.207H322.135C321.286 631.588 320.367 631.784 319.438 631.784C318.508 631.784 317.589 631.588 316.74 631.207H289.768C288.605 630.986 287.406 631.034 286.264 631.345C285.121 631.657 284.065 632.225 283.175 633.006H281.377L279.579 631.807V630.009H272.386C269.904 628.988 267.272 628.38 264.594 628.21H249.61L245.414 627.011L242.417 625.813L229.83 623.415H226.833L223.836 622.216L211.249 618.02L202.858 615.622H189.671C189.072 615.622 189.072 616.222 189.072 616.821H190.271C198.063 619.818 205.855 622.216 213.647 625.813H215.445L220.839 627.011L229.231 629.409H237.022L240.619 630.608L244.814 632.406L255.004 634.205L261.597 635.404L268.19 636.602H272.985L277.781 637.801H296.361L302.355 639H316.141L322.135 637.801H335.321C337.719 637.801 338.918 637.202 339.517 636.003H345.511C346.393 636.076 347.281 635.953 348.11 635.642C348.939 635.331 349.689 634.84 350.306 634.205C349.706 634.804 350.306 634.804 350.905 635.404H353.303V634.205C353.303 633.605 353.303 633.605 354.501 633.006C355.7 632.406 358.098 632.406 358.697 633.605H361.095L362.893 632.406C364.092 632.406 364.092 632.406 364.092 633.006H368.287L371.284 631.807L376.079 629.409C376.679 631.208 378.477 631.807 383.871 630.608L391.663 628.21H398.856C404.25 627.611 410.843 628.21 415.039 624.014H416.238L418.635 622.216L425.229 620.418C429.477 619.543 433.536 617.919 437.216 615.622L439.614 614.423H440.213L445.608 610.827L448.005 609.628L451.002 608.429H453.4C455.797 607.829 455.797 607.829 456.397 606.031C456.996 604.233 456.397 605.432 455.198 605.432H454.598L456.996 602.434H458.195C459.993 601.835 461.192 601.236 462.39 601.835H463.589C464.875 601.474 466.047 600.788 466.992 599.843C467.936 598.898 468.622 597.726 468.984 596.44C470.782 594.042 475.577 595.241 476.776 591.645L502.549 573.062C509.142 572.463 510.94 566.468 515.735 562.872C520.53 559.275 529.521 556.278 533.717 549.684L539.111 547.286H539.711C541.22 547.655 542.813 547.424 544.154 546.641C545.496 545.858 546.482 544.585 546.903 543.09V545.488C551.698 543.09 557.692 547.286 562.487 542.491C567.282 537.695 562.487 526.306 568.481 519.712L572.677 516.715C577.208 508.952 580.256 500.415 581.667 491.539L582.866 490.34C582.866 488.541 582.866 486.144 585.264 484.945C586.327 484.113 587.04 482.913 587.262 481.581C587.484 480.25 587.199 478.883 586.463 477.752H585.264C585.422 477.478 585.505 477.168 585.505 476.852C585.505 476.537 585.422 476.227 585.264 475.953C589.459 475.953 590.059 471.757 592.456 469.959V461.567C592.376 461.171 592.376 460.763 592.456 460.368C592.786 458.991 592.987 457.586 593.056 456.172Z" fill="#915EFF"/>
<path d="M157.904 55.7478L156.106 56.9467L153.708 58.745L156.705 57.5461L157.904 55.7478ZM194.466 43.7591H195.066L196.864 42.5602H194.466V43.7591ZM178.882 49.7534L178.283 50.3529H178.882V49.7534ZM54.8102 157.053L52.4127 159.45H53.6115C54.0274 159.216 54.3636 158.862 54.5772 158.435C54.7908 158.008 54.8719 157.526 54.8102 157.053ZM72.7917 136.072C73.5799 134.978 74.1871 133.763 74.5899 132.476C73.3663 133.222 72.3388 134.249 71.593 135.473C70.9936 136.072 70.9936 136.672 71.593 136.672L72.7917 136.072ZM65.5991 145.064V143.865C64.4004 143.865 62.6022 145.663 60.8041 145.663V146.862C62.6022 148.661 63.2016 148.061 65.5991 145.064ZM442.611 55.1484H443.21L440.213 53.35L442.611 55.1484ZM427.626 46.7562C430.623 46.1568 432.421 49.154 434.819 49.7534H435.418L433.62 48.5546L427.626 45.5574L421.033 42.5602L422.831 43.7591L427.626 46.7562ZM386.269 30.5714H385.669L378.477 29.3726H381.474L386.269 30.5714ZM398.256 34.7675L406.048 37.1652C403.646 35.8335 400.992 35.017 398.256 34.7675ZM344.312 34.7675C344.978 33.8969 345.393 32.8602 345.511 31.7703H342.514L340.716 33.5686L343.113 35.3669L344.312 34.7675ZM373.082 36.5658C373.062 36.7651 373.062 36.9659 373.082 37.1652V36.5658ZM641.606 350.072H639.808V347.674H641.606C642.205 347.674 642.804 345.875 642.205 345.276C641.606 344.677 641.606 341.08 640.407 340.48C640.039 340.351 639.723 340.106 639.507 339.782C639.291 339.457 639.186 339.071 639.208 338.682L640.407 336.284C640.508 335.891 640.508 335.479 640.407 335.086H639.208L638.009 333.287C637.41 335.086 636.811 336.884 635.612 337.483C635.531 337.879 635.531 338.287 635.612 338.682C635.612 339.282 635.612 339.881 635.013 339.881H634.413C634.301 340.506 634.099 341.112 633.814 341.679C632.634 343.283 631.817 345.124 631.416 347.074C631.289 347.491 631.278 347.934 631.383 348.356C631.489 348.779 631.707 349.164 632.016 349.472H632.615C632.034 350.999 631.828 352.644 632.016 354.268V356.665C631.959 357.688 631.757 358.697 631.416 359.662H630.817L628.419 363.859V367.455C628.711 369.804 628.065 372.173 626.621 374.049H625.422L624.224 372.85C623.758 372.152 623.461 371.356 623.357 370.523C623.253 369.691 623.344 368.846 623.624 368.055C624.27 364.699 624.472 361.273 624.224 357.864C624.224 357.265 623.624 356.665 623.624 356.665C623.235 357.184 623.025 357.815 623.025 358.464V362.06C623.025 363.259 622.425 365.657 621.227 366.256C620.028 366.856 620.627 367.455 620.627 368.055L619.429 371.651L621.227 374.648C620.028 375.847 618.829 375.248 618.23 374.049V380.043H620.028V382.441C618.953 385.115 618.344 387.954 618.23 390.833C618.181 391.632 618.181 392.432 618.23 393.231C618.263 395.877 617.858 398.51 617.031 401.024C616.85 402.216 616.85 403.428 617.031 404.62L615.233 408.816C614.803 410.282 614.199 411.69 613.435 413.012L611.637 416.609L606.242 432.794C608.04 438.189 603.845 441.785 601.447 445.382C601.784 447.895 601.525 450.452 600.692 452.847C599.859 455.242 598.475 457.407 596.652 459.169V461.567C596.652 462.166 597.251 462.766 598.45 462.166L600.848 460.368L602.046 457.97H603.245C603.845 458.57 604.444 458.57 605.643 457.371H606.842C607.323 457.821 607.643 458.417 607.751 459.067C607.859 459.718 607.75 460.385 607.441 460.967C607.019 462.53 606.817 464.144 606.842 465.763C606.842 466.362 606.842 466.962 607.441 466.962H608.64C609.239 467.561 609.838 466.962 610.438 465.163L611.637 462.166H613.435C615.832 461.567 615.832 461.567 617.031 458.57L620.028 453.175L621.826 449.578L624.224 443.584C624.136 441.441 624.769 439.33 626.022 437.589C626.433 437.098 626.706 436.505 626.811 435.873C626.916 435.24 626.851 434.591 626.621 433.993C626.621 432.794 626.621 432.194 627.82 430.396L629.618 427.998L632.615 422.004C632.837 420.171 633.238 418.364 633.814 416.609C634.99 414.179 635.605 411.516 635.612 408.816C635.984 406.95 636.588 405.138 637.41 403.421V400.424C636.811 399.225 636.811 399.225 637.41 396.828C638.009 394.43 638.009 395.629 638.609 395.629C638.826 395.872 638.991 396.157 639.094 396.466C639.197 396.775 639.236 397.102 639.208 397.427L640.407 394.43C641.167 392.731 641.574 390.896 641.606 389.035V387.237C641.606 386.637 641.606 385.438 641.006 385.438V387.836C639.808 387.836 639.208 389.035 638.009 389.634C638.31 388.05 638.51 386.448 638.609 384.839L641.006 383.64C641.474 383.177 641.827 382.61 642.035 381.985C642.243 381.36 642.302 380.695 642.205 380.043C642.141 379.446 642.141 378.843 642.205 378.245C643.017 375.522 643.421 372.694 643.404 369.853V368.654L645.202 362.66H645.801C646.059 362.445 646.251 362.164 646.357 361.846C646.463 361.528 646.478 361.187 646.401 360.861H645.801C645.605 360.024 645.611 359.152 645.819 358.318C646.028 357.484 646.433 356.712 647 356.066C646.63 354.716 645.949 353.471 645.013 352.43C644.076 351.389 642.909 350.582 641.606 350.072ZM54.2109 184.627C54.348 184.239 54.348 183.816 54.2109 183.428L53.0121 182.229L51.8133 183.428L50.0152 187.025C50.0152 188.823 48.217 190.621 48.217 192.419V193.618H48.8164L54.2109 184.627ZM631.416 333.287H632.016C633.289 331.119 633.716 328.558 633.214 326.094C633.107 325.532 633.163 324.951 633.376 324.42C633.588 323.889 633.948 323.43 634.413 323.097H635.013V321.898L633.814 320.699H633.214C632.615 321.299 632.016 322.497 631.416 322.497C630.817 322.497 630.817 323.097 630.817 324.296V326.094C630.344 328.501 630.551 330.992 631.416 333.287ZM78.7855 540.093C78.1862 540.093 78.7855 541.292 78.7855 541.891L83.5806 546.687H84.18C82.9812 544.889 82.3818 543.09 82.9812 542.491C81.8833 542.407 80.8375 541.988 79.9843 541.292L78.7855 540.093ZM636.811 327.892H637.41C637.591 326.7 637.591 325.488 637.41 324.296C635.612 324.895 635.612 324.895 635.612 327.892C635.612 330.89 636.211 328.492 636.811 327.892Z" fill="#915EFF"/>
<path d="M639.208 371.651C639.522 371.226 639.738 370.737 639.842 370.219C639.946 369.701 639.934 369.167 639.808 368.654C639.808 368.054 639.208 367.455 639.208 368.054H638.009V369.253C638.009 371.651 638.609 372.25 639.208 371.651ZM639.808 322.497H639.208V326.094C639.776 324.986 639.986 323.729 639.808 322.497ZM102.161 555.079H100.963V556.278L102.161 557.476H103.36V556.278L102.161 555.079ZM621.227 355.466C621.227 354.867 621.227 354.867 620.627 354.867L621.227 355.466ZM59.0059 518.513L62.0028 521.51L59.6052 517.914L59.0059 518.513Z" fill="#915EFF"/>
<path d="M556.493 140.868L555.295 139.069H554.695L556.493 140.868ZM34.4312 194.218C34.778 193.91 34.9927 193.481 35.0305 193.019V194.218H34.4312ZM97.9657 554.479H97.3663C97.9657 555.079 98.5651 554.479 97.9657 553.88V554.479ZM99.1645 558.675H99.7639L99.1645 558.076V558.675Z" fill="#915EFF"/>
<path d="M193.47 423H165.47V402L144.47 423H70.97C64.2034 423 58.37 420.667 53.47 416C48.8034 411.1 46.47 405.267 46.47 398.5V251.5H74.47V398.5H165.47V251.5H193.47V423ZM378.833 423H256.333V300.5L280.833 276H256.333V251.5H378.833V276H284.333V346L305.333 325H378.833V349.5H284.333V398.5H378.833V423ZM587.083 251.5L509.383 323.95V327.45H553.833C560.6 327.45 566.317 329.9 570.983 334.8C575.883 339.467 578.333 345.183 578.333 351.95V423H550.333V349.5H459.333V423H431.333V251.5H459.333V344.95L552.433 251.5H587.083Z" fill="white"/>
</g>
<defs>
<clipPath id="clip0_385_2">
<rect width="647" height="639" fill="white"/>
</clipPath>
</defs>
</svg>
